<svg width="192" height="192" viewBox="0 0 192 192" fill="none" xmlns="http://www.w3.org/2000/svg">
<rect width="192" height="192" rx="10" fill="#1976D2"/>
<rect x="32" y="32" width="128" height="128" fill="#1976D2"/>
<path fill-rule="evenodd" clip-rule="evenodd" d="M96 160C131.346 160 160 131.346 160 96C160 60.6538 131.346 32 96 32C60.6538 32 32 60.6538 32 96C32 131.346 60.6538 160 96 160ZM96 149.333C125.455 149.333 149.333 125.455 149.333 96C149.333 66.5448 125.455 42.6667 96 42.6667C66.5448 42.6667 42.6667 66.5448 42.6667 96C42.6667 125.455 66.5448 149.333 96 149.333Z" fill="white"/>
<circle cx="96.0008" cy="87.2728" r="20.3636" fill="white"/>
<path fill-rule="evenodd" clip-rule="evenodd" d="M130.908 148.364C130.908 148.364 130.908 148.364 130.908 148.364C130.908 129.084 115.278 113.454 95.9984 113.454C76.7187 113.454 61.0894 129.084 61.0894 148.364C61.0894 148.364 61.0894 148.364 61.0894 148.364H130.908Z" fill="white"/>
<rect x="81.4551" y="139.636" width="32" height="11.6364" fill="white"/>
</svg>
