<svg width="512" height="352" viewBox="0 0 512 352" fill="none" xmlns="http://www.w3.org/2000/svg">
<rect width="512" height="352" fill="white"/>
<path d="M52.4219 125.211C52.4219 124.508 52.3125 123.883 52.0938 123.336C51.8906 122.789 51.5234 122.289 50.9922 121.836C50.4609 121.383 49.7109 120.945 48.7422 120.523C47.7891 120.086 46.5703 119.641 45.0859 119.188C43.4609 118.688 41.9609 118.133 40.5859 117.523C39.2266 116.898 38.0391 116.18 37.0234 115.367C36.0078 114.539 35.2188 113.594 34.6562 112.531C34.0938 111.453 33.8125 110.211 33.8125 108.805C33.8125 107.414 34.1016 106.148 34.6797 105.008C35.2734 103.867 36.1094 102.883 37.1875 102.055C38.2812 101.211 39.5703 100.562 41.0547 100.109C42.5391 99.6406 44.1797 99.4062 45.9766 99.4062C48.5078 99.4062 50.6875 99.875 52.5156 100.812C54.3594 101.75 55.7734 103.008 56.7578 104.586C57.7578 106.164 58.2578 107.906 58.2578 109.812H52.4219C52.4219 108.688 52.1797 107.695 51.6953 106.836C51.2266 105.961 50.5078 105.273 49.5391 104.773C48.5859 104.273 47.375 104.023 45.9062 104.023C44.5156 104.023 43.3594 104.234 42.4375 104.656C41.5156 105.078 40.8281 105.648 40.375 106.367C39.9219 107.086 39.6953 107.898 39.6953 108.805C39.6953 109.445 39.8438 110.031 40.1406 110.562C40.4375 111.078 40.8906 111.562 41.5 112.016C42.1094 112.453 42.875 112.867 43.7969 113.258C44.7188 113.648 45.8047 114.023 47.0547 114.383C48.9453 114.945 50.5938 115.57 52 116.258C53.4062 116.93 54.5781 117.695 55.5156 118.555C56.4531 119.414 57.1562 120.391 57.625 121.484C58.0938 122.562 58.3281 123.789 58.3281 125.164C58.3281 126.602 58.0391 127.898 57.4609 129.055C56.8828 130.195 56.0547 131.172 54.9766 131.984C53.9141 132.781 52.6328 133.398 51.1328 133.836C49.6484 134.258 47.9922 134.469 46.1641 134.469C44.5234 134.469 42.9062 134.25 41.3125 133.812C39.7344 133.375 38.2969 132.711 37 131.82C35.7031 130.914 34.6719 129.789 33.9062 128.445C33.1406 127.086 32.7578 125.5 32.7578 123.688H38.6406C38.6406 124.797 38.8281 125.742 39.2031 126.523C39.5938 127.305 40.1328 127.945 40.8203 128.445C41.5078 128.93 42.3047 129.289 43.2109 129.523C44.1328 129.758 45.1172 129.875 46.1641 129.875C47.5391 129.875 48.6875 129.68 49.6094 129.289C50.5469 128.898 51.25 128.352 51.7188 127.648C52.1875 126.945 52.4219 126.133 52.4219 125.211ZM69.0156 108.641V134H63.3438V108.641H69.0156ZM62.9688 101.984C62.9688 101.125 63.25 100.414 63.8125 99.8516C64.3906 99.2734 65.1875 98.9844 66.2031 98.9844C67.2031 98.9844 67.9922 99.2734 68.5703 99.8516C69.1484 100.414 69.4375 101.125 69.4375 101.984C69.4375 102.828 69.1484 103.531 68.5703 104.094C67.9922 104.656 67.2031 104.938 66.2031 104.938C65.1875 104.938 64.3906 104.656 63.8125 104.094C63.25 103.531 62.9688 102.828 62.9688 101.984ZM80.8516 113.797V134H75.2031V108.641H80.5234L80.8516 113.797ZM79.9375 120.383L78.0156 120.359C78.0156 118.609 78.2344 116.992 78.6719 115.508C79.1094 114.023 79.75 112.734 80.5938 111.641C81.4375 110.531 82.4844 109.68 83.7344 109.086C85 108.477 86.4609 108.172 88.1172 108.172C89.2734 108.172 90.3281 108.344 91.2812 108.688C92.25 109.016 93.0859 109.539 93.7891 110.258C94.5078 110.977 95.0547 111.898 95.4297 113.023C95.8203 114.148 96.0156 115.508 96.0156 117.102V134H90.3672V117.594C90.3672 116.359 90.1797 115.391 89.8047 114.688C89.4453 113.984 88.9219 113.484 88.2344 113.188C87.5625 112.875 86.7578 112.719 85.8203 112.719C84.7578 112.719 83.8516 112.922 83.1016 113.328C82.3672 113.734 81.7656 114.289 81.2969 114.992C80.8281 115.695 80.4844 116.508 80.2656 117.43C80.0469 118.352 79.9375 119.336 79.9375 120.383ZM95.6641 118.883L93.0156 119.469C93.0156 117.938 93.2266 116.492 93.6484 115.133C94.0859 113.758 94.7188 112.555 95.5469 111.523C96.3906 110.477 97.4297 109.656 98.6641 109.062C99.8984 108.469 101.312 108.172 102.906 108.172C104.203 108.172 105.359 108.352 106.375 108.711C107.406 109.055 108.281 109.602 109 110.352C109.719 111.102 110.266 112.078 110.641 113.281C111.016 114.469 111.203 115.906 111.203 117.594V134H105.531V117.57C105.531 116.289 105.344 115.297 104.969 114.594C104.609 113.891 104.094 113.406 103.422 113.141C102.75 112.859 101.945 112.719 101.008 112.719C100.133 112.719 99.3594 112.883 98.6875 113.211C98.0312 113.523 97.4766 113.969 97.0234 114.547C96.5703 115.109 96.2266 115.758 95.9922 116.492C95.7734 117.227 95.6641 118.023 95.6641 118.883ZM122.688 113.516V143.75H117.039V108.641H122.242L122.688 113.516ZM139.211 121.086V121.578C139.211 123.422 138.992 125.133 138.555 126.711C138.133 128.273 137.5 129.641 136.656 130.812C135.828 131.969 134.805 132.867 133.586 133.508C132.367 134.148 130.961 134.469 129.367 134.469C127.789 134.469 126.406 134.18 125.219 133.602C124.047 133.008 123.055 132.172 122.242 131.094C121.43 130.016 120.773 128.75 120.273 127.297C119.789 125.828 119.445 124.219 119.242 122.469V120.57C119.445 118.711 119.789 117.023 120.273 115.508C120.773 113.992 121.43 112.688 122.242 111.594C123.055 110.5 124.047 109.656 125.219 109.062C126.391 108.469 127.758 108.172 129.32 108.172C130.914 108.172 132.328 108.484 133.562 109.109C134.797 109.719 135.836 110.594 136.68 111.734C137.523 112.859 138.156 114.219 138.578 115.812C139 117.391 139.211 119.148 139.211 121.086ZM133.562 121.578V121.086C133.562 119.914 133.453 118.828 133.234 117.828C133.016 116.812 132.672 115.922 132.203 115.156C131.734 114.391 131.133 113.797 130.398 113.375C129.68 112.938 128.812 112.719 127.797 112.719C126.797 112.719 125.938 112.891 125.219 113.234C124.5 113.562 123.898 114.023 123.414 114.617C122.93 115.211 122.555 115.906 122.289 116.703C122.023 117.484 121.836 118.336 121.727 119.258V123.805C121.914 124.93 122.234 125.961 122.688 126.898C123.141 127.836 123.781 128.586 124.609 129.148C125.453 129.695 126.531 129.969 127.844 129.969C128.859 129.969 129.727 129.75 130.445 129.312C131.164 128.875 131.75 128.273 132.203 127.508C132.672 126.727 133.016 125.828 133.234 124.812C133.453 123.797 133.562 122.719 133.562 121.578ZM150.062 98V134H144.391V98H150.062ZM167.43 134.469C165.555 134.469 163.859 134.164 162.344 133.555C160.844 132.93 159.562 132.062 158.5 130.953C157.453 129.844 156.648 128.539 156.086 127.039C155.523 125.539 155.242 123.922 155.242 122.188V121.25C155.242 119.266 155.531 117.469 156.109 115.859C156.688 114.25 157.492 112.875 158.523 111.734C159.555 110.578 160.773 109.695 162.18 109.086C163.586 108.477 165.109 108.172 166.75 108.172C168.562 108.172 170.148 108.477 171.508 109.086C172.867 109.695 173.992 110.555 174.883 111.664C175.789 112.758 176.461 114.062 176.898 115.578C177.352 117.094 177.578 118.766 177.578 120.594V123.008H157.984V118.953H172V118.508C171.969 117.492 171.766 116.539 171.391 115.648C171.031 114.758 170.477 114.039 169.727 113.492C168.977 112.945 167.977 112.672 166.727 112.672C165.789 112.672 164.953 112.875 164.219 113.281C163.5 113.672 162.898 114.242 162.414 114.992C161.93 115.742 161.555 116.648 161.289 117.711C161.039 118.758 160.914 119.938 160.914 121.25V122.188C160.914 123.297 161.062 124.328 161.359 125.281C161.672 126.219 162.125 127.039 162.719 127.742C163.312 128.445 164.031 129 164.875 129.406C165.719 129.797 166.68 129.992 167.758 129.992C169.117 129.992 170.328 129.719 171.391 129.172C172.453 128.625 173.375 127.852 174.156 126.852L177.133 129.734C176.586 130.531 175.875 131.297 175 132.031C174.125 132.75 173.055 133.336 171.789 133.789C170.539 134.242 169.086 134.469 167.43 134.469Z" fill="#0085FF"/>
<path d="M322.094 108.641V112.766H307.797V108.641H322.094ZM311.922 102.43H317.57V126.992C317.57 127.773 317.68 128.375 317.898 128.797C318.133 129.203 318.453 129.477 318.859 129.617C319.266 129.758 319.742 129.828 320.289 129.828C320.68 129.828 321.055 129.805 321.414 129.758C321.773 129.711 322.062 129.664 322.281 129.617L322.305 133.93C321.836 134.07 321.289 134.195 320.664 134.305C320.055 134.414 319.352 134.469 318.555 134.469C317.258 134.469 316.109 134.242 315.109 133.789C314.109 133.32 313.328 132.562 312.766 131.516C312.203 130.469 311.922 129.078 311.922 127.344V102.43ZM324.812 121.602V121.062C324.812 119.234 325.078 117.539 325.609 115.977C326.141 114.398 326.906 113.031 327.906 111.875C328.922 110.703 330.156 109.797 331.609 109.156C333.078 108.5 334.734 108.172 336.578 108.172C338.438 108.172 340.094 108.5 341.547 109.156C343.016 109.797 344.258 110.703 345.273 111.875C346.289 113.031 347.062 114.398 347.594 115.977C348.125 117.539 348.391 119.234 348.391 121.062V121.602C348.391 123.43 348.125 125.125 347.594 126.688C347.062 128.25 346.289 129.617 345.273 130.789C344.258 131.945 343.023 132.852 341.57 133.508C340.117 134.148 338.469 134.469 336.625 134.469C334.766 134.469 333.102 134.148 331.633 133.508C330.18 132.852 328.945 131.945 327.93 130.789C326.914 129.617 326.141 128.25 325.609 126.688C325.078 125.125 324.812 123.43 324.812 121.602ZM330.461 121.062V121.602C330.461 122.742 330.578 123.82 330.812 124.836C331.047 125.852 331.414 126.742 331.914 127.508C332.414 128.273 333.055 128.875 333.836 129.312C334.617 129.75 335.547 129.969 336.625 129.969C337.672 129.969 338.578 129.75 339.344 129.312C340.125 128.875 340.766 128.273 341.266 127.508C341.766 126.742 342.133 125.852 342.367 124.836C342.617 123.82 342.742 122.742 342.742 121.602V121.062C342.742 119.938 342.617 118.875 342.367 117.875C342.133 116.859 341.758 115.961 341.242 115.18C340.742 114.398 340.102 113.789 339.32 113.352C338.555 112.898 337.641 112.672 336.578 112.672C335.516 112.672 334.594 112.898 333.812 113.352C333.047 113.789 332.414 114.398 331.914 115.18C331.414 115.961 331.047 116.859 330.812 117.875C330.578 118.875 330.461 119.938 330.461 121.062ZM370.727 113.797V134H365.078V108.641H370.398L370.727 113.797ZM369.812 120.383L367.891 120.359C367.891 118.609 368.109 116.992 368.547 115.508C368.984 114.023 369.625 112.734 370.469 111.641C371.312 110.531 372.359 109.68 373.609 109.086C374.875 108.477 376.336 108.172 377.992 108.172C379.148 108.172 380.203 108.344 381.156 108.688C382.125 109.016 382.961 109.539 383.664 110.258C384.383 110.977 384.93 111.898 385.305 113.023C385.695 114.148 385.891 115.508 385.891 117.102V134H380.242V117.594C380.242 116.359 380.055 115.391 379.68 114.688C379.32 113.984 378.797 113.484 378.109 113.188C377.438 112.875 376.633 112.719 375.695 112.719C374.633 112.719 373.727 112.922 372.977 113.328C372.242 113.734 371.641 114.289 371.172 114.992C370.703 115.695 370.359 116.508 370.141 117.43C369.922 118.352 369.812 119.336 369.812 120.383ZM385.539 118.883L382.891 119.469C382.891 117.938 383.102 116.492 383.523 115.133C383.961 113.758 384.594 112.555 385.422 111.523C386.266 110.477 387.305 109.656 388.539 109.062C389.773 108.469 391.188 108.172 392.781 108.172C394.078 108.172 395.234 108.352 396.25 108.711C397.281 109.055 398.156 109.602 398.875 110.352C399.594 111.102 400.141 112.078 400.516 113.281C400.891 114.469 401.078 115.906 401.078 117.594V134H395.406V117.57C395.406 116.289 395.219 115.297 394.844 114.594C394.484 113.891 393.969 113.406 393.297 113.141C392.625 112.859 391.82 112.719 390.883 112.719C390.008 112.719 389.234 112.883 388.562 113.211C387.906 113.523 387.352 113.969 386.898 114.547C386.445 115.109 386.102 115.758 385.867 116.492C385.648 117.227 385.539 118.023 385.539 118.883ZM421.188 128.914V116.82C421.188 115.914 421.023 115.133 420.695 114.477C420.367 113.82 419.867 113.312 419.195 112.953C418.539 112.594 417.711 112.414 416.711 112.414C415.789 112.414 414.992 112.57 414.32 112.883C413.648 113.195 413.125 113.617 412.75 114.148C412.375 114.68 412.188 115.281 412.188 115.953H406.562C406.562 114.953 406.805 113.984 407.289 113.047C407.773 112.109 408.477 111.273 409.398 110.539C410.32 109.805 411.422 109.227 412.703 108.805C413.984 108.383 415.422 108.172 417.016 108.172C418.922 108.172 420.609 108.492 422.078 109.133C423.562 109.773 424.727 110.742 425.57 112.039C426.43 113.32 426.859 114.93 426.859 116.867V128.141C426.859 129.297 426.938 130.336 427.094 131.258C427.266 132.164 427.508 132.953 427.82 133.625V134H422.031C421.766 133.391 421.555 132.617 421.398 131.68C421.258 130.727 421.188 129.805 421.188 128.914ZM422.008 118.578L422.055 122.07H418C416.953 122.07 416.031 122.172 415.234 122.375C414.438 122.562 413.773 122.844 413.242 123.219C412.711 123.594 412.312 124.047 412.047 124.578C411.781 125.109 411.648 125.711 411.648 126.383C411.648 127.055 411.805 127.672 412.117 128.234C412.43 128.781 412.883 129.211 413.477 129.523C414.086 129.836 414.82 129.992 415.68 129.992C416.836 129.992 417.844 129.758 418.703 129.289C419.578 128.805 420.266 128.219 420.766 127.531C421.266 126.828 421.531 126.164 421.562 125.539L423.391 128.047C423.203 128.688 422.883 129.375 422.43 130.109C421.977 130.844 421.383 131.547 420.648 132.219C419.93 132.875 419.062 133.414 418.047 133.836C417.047 134.258 415.891 134.469 414.578 134.469C412.922 134.469 411.445 134.141 410.148 133.484C408.852 132.812 407.836 131.914 407.102 130.789C406.367 129.648 406 128.359 406 126.922C406 125.578 406.25 124.391 406.75 123.359C407.266 122.312 408.016 121.438 409 120.734C410 120.031 411.219 119.5 412.656 119.141C414.094 118.766 415.734 118.578 417.578 118.578H422.008ZM438.461 98V134H432.789V98H438.461ZM454.211 108.641L443.172 120.875L437.125 127.062L435.648 122.281L440.219 116.633L447.391 108.641H454.211ZM448.609 134L440.383 122.094L443.945 118.133L455.148 134H448.609ZM468.508 134.469C466.633 134.469 464.938 134.164 463.422 133.555C461.922 132.93 460.641 132.062 459.578 130.953C458.531 129.844 457.727 128.539 457.164 127.039C456.602 125.539 456.32 123.922 456.32 122.188V121.25C456.32 119.266 456.609 117.469 457.188 115.859C457.766 114.25 458.57 112.875 459.602 111.734C460.633 110.578 461.852 109.695 463.258 109.086C464.664 108.477 466.188 108.172 467.828 108.172C469.641 108.172 471.227 108.477 472.586 109.086C473.945 109.695 475.07 110.555 475.961 111.664C476.867 112.758 477.539 114.062 477.977 115.578C478.43 117.094 478.656 118.766 478.656 120.594V123.008H459.062V118.953H473.078V118.508C473.047 117.492 472.844 116.539 472.469 115.648C472.109 114.758 471.555 114.039 470.805 113.492C470.055 112.945 469.055 112.672 467.805 112.672C466.867 112.672 466.031 112.875 465.297 113.281C464.578 113.672 463.977 114.242 463.492 114.992C463.008 115.742 462.633 116.648 462.367 117.711C462.117 118.758 461.992 119.938 461.992 121.25V122.188C461.992 123.297 462.141 124.328 462.438 125.281C462.75 126.219 463.203 127.039 463.797 127.742C464.391 128.445 465.109 129 465.953 129.406C466.797 129.797 467.758 129.992 468.836 129.992C470.195 129.992 471.406 129.719 472.469 129.172C473.531 128.625 474.453 127.852 475.234 126.852L478.211 129.734C477.664 130.531 476.953 131.297 476.078 132.031C475.203 132.75 474.133 133.336 472.867 133.789C471.617 134.242 470.164 134.469 468.508 134.469ZM41.2656 187.234L48.1562 164.641H54.2031L44.0312 193.867C43.7969 194.492 43.4922 195.172 43.1172 195.906C42.7422 196.641 42.25 197.336 41.6406 197.992C41.0469 198.664 40.3047 199.203 39.4141 199.609C38.5234 200.031 37.4453 200.242 36.1797 200.242C35.6797 200.242 35.1953 200.195 34.7266 200.102C34.2734 200.023 33.8438 199.938 33.4375 199.844L33.4141 195.531C33.5703 195.547 33.7578 195.562 33.9766 195.578C34.2109 195.594 34.3984 195.602 34.5391 195.602C35.4766 195.602 36.2578 195.484 36.8828 195.25C37.5078 195.031 38.0156 194.672 38.4062 194.172C38.8125 193.672 39.1562 193 39.4375 192.156L41.2656 187.234ZM37.375 164.641L43.3984 183.625L44.4062 189.578L40.4922 190.586L31.2812 164.641H37.375ZM55.9844 177.602V177.062C55.9844 175.234 56.25 173.539 56.7812 171.977C57.3125 170.398 58.0781 169.031 59.0781 167.875C60.0938 166.703 61.3281 165.797 62.7812 165.156C64.25 164.5 65.9062 164.172 67.75 164.172C69.6094 164.172 71.2656 164.5 72.7188 165.156C74.1875 165.797 75.4297 166.703 76.4453 167.875C77.4609 169.031 78.2344 170.398 78.7656 171.977C79.2969 173.539 79.5625 175.234 79.5625 177.062V177.602C79.5625 179.43 79.2969 181.125 78.7656 182.688C78.2344 184.25 77.4609 185.617 76.4453 186.789C75.4297 187.945 74.1953 188.852 72.7422 189.508C71.2891 190.148 69.6406 190.469 67.7969 190.469C65.9375 190.469 64.2734 190.148 62.8047 189.508C61.3516 188.852 60.1172 187.945 59.1016 186.789C58.0859 185.617 57.3125 184.25 56.7812 182.688C56.25 181.125 55.9844 179.43 55.9844 177.602ZM61.6328 177.062V177.602C61.6328 178.742 61.75 179.82 61.9844 180.836C62.2188 181.852 62.5859 182.742 63.0859 183.508C63.5859 184.273 64.2266 184.875 65.0078 185.312C65.7891 185.75 66.7188 185.969 67.7969 185.969C68.8438 185.969 69.75 185.75 70.5156 185.312C71.2969 184.875 71.9375 184.273 72.4375 183.508C72.9375 182.742 73.3047 181.852 73.5391 180.836C73.7891 179.82 73.9141 178.742 73.9141 177.602V177.062C73.9141 175.938 73.7891 174.875 73.5391 173.875C73.3047 172.859 72.9297 171.961 72.4141 171.18C71.9141 170.398 71.2734 169.789 70.4922 169.352C69.7266 168.898 68.8125 168.672 67.75 168.672C66.6875 168.672 65.7656 168.898 64.9844 169.352C64.2188 169.789 63.5859 170.398 63.0859 171.18C62.5859 171.961 62.2188 172.859 61.9844 173.875C61.75 174.875 61.6328 175.938 61.6328 177.062ZM99.5547 184.023V164.641H105.227V190H99.8828L99.5547 184.023ZM100.352 178.75L102.25 178.703C102.25 180.406 102.062 181.977 101.688 183.414C101.312 184.836 100.734 186.078 99.9531 187.141C99.1719 188.188 98.1719 189.008 96.9531 189.602C95.7344 190.18 94.2734 190.469 92.5703 190.469C91.3359 190.469 90.2031 190.289 89.1719 189.93C88.1406 189.57 87.25 189.016 86.5 188.266C85.7656 187.516 85.1953 186.539 84.7891 185.336C84.3828 184.133 84.1797 182.695 84.1797 181.023V164.641H89.8281V181.07C89.8281 181.992 89.9375 182.766 90.1562 183.391C90.375 184 90.6719 184.492 91.0469 184.867C91.4219 185.242 91.8594 185.508 92.3594 185.664C92.8594 185.82 93.3906 185.898 93.9531 185.898C95.5625 185.898 96.8281 185.586 97.75 184.961C98.6875 184.32 99.3516 183.461 99.7422 182.383C100.148 181.305 100.352 180.094 100.352 178.75ZM116.688 169.469V190H111.039V164.641H116.43L116.688 169.469ZM124.445 164.477L124.398 169.727C124.055 169.664 123.68 169.617 123.273 169.586C122.883 169.555 122.492 169.539 122.102 169.539C121.133 169.539 120.281 169.68 119.547 169.961C118.812 170.227 118.195 170.617 117.695 171.133C117.211 171.633 116.836 172.242 116.57 172.961C116.305 173.68 116.148 174.484 116.102 175.375L114.812 175.469C114.812 173.875 114.969 172.398 115.281 171.039C115.594 169.68 116.062 168.484 116.688 167.453C117.328 166.422 118.125 165.617 119.078 165.039C120.047 164.461 121.164 164.172 122.43 164.172C122.773 164.172 123.141 164.203 123.531 164.266C123.938 164.328 124.242 164.398 124.445 164.477ZM145.984 154V190H140.312V154H145.984ZM158.219 164.641V190H152.547V164.641H158.219ZM152.172 157.984C152.172 157.125 152.453 156.414 153.016 155.852C153.594 155.273 154.391 154.984 155.406 154.984C156.406 154.984 157.195 155.273 157.773 155.852C158.352 156.414 158.641 157.125 158.641 157.984C158.641 158.828 158.352 159.531 157.773 160.094C157.195 160.656 156.406 160.938 155.406 160.938C154.391 160.938 153.594 160.656 153.016 160.094C152.453 159.531 152.172 158.828 152.172 157.984ZM172.047 190H166.398V162.203C166.398 160.312 166.75 158.727 167.453 157.445C168.172 156.148 169.195 155.172 170.523 154.516C171.852 153.844 173.422 153.508 175.234 153.508C175.797 153.508 176.352 153.547 176.898 153.625C177.445 153.688 177.977 153.789 178.492 153.93L178.352 158.289C178.039 158.211 177.695 158.156 177.32 158.125C176.961 158.094 176.57 158.078 176.148 158.078C175.289 158.078 174.547 158.242 173.922 158.57C173.312 158.883 172.844 159.344 172.516 159.953C172.203 160.562 172.047 161.312 172.047 162.203V190ZM177.273 164.641V168.766H162.508V164.641H177.273ZM191.992 190.469C190.117 190.469 188.422 190.164 186.906 189.555C185.406 188.93 184.125 188.062 183.062 186.953C182.016 185.844 181.211 184.539 180.648 183.039C180.086 181.539 179.805 179.922 179.805 178.188V177.25C179.805 175.266 180.094 173.469 180.672 171.859C181.25 170.25 182.055 168.875 183.086 167.734C184.117 166.578 185.336 165.695 186.742 165.086C188.148 164.477 189.672 164.172 191.312 164.172C193.125 164.172 194.711 164.477 196.07 165.086C197.43 165.695 198.555 166.555 199.445 167.664C200.352 168.758 201.023 170.062 201.461 171.578C201.914 173.094 202.141 174.766 202.141 176.594V179.008H182.547V174.953H196.562V174.508C196.531 173.492 196.328 172.539 195.953 171.648C195.594 170.758 195.039 170.039 194.289 169.492C193.539 168.945 192.539 168.672 191.289 168.672C190.352 168.672 189.516 168.875 188.781 169.281C188.062 169.672 187.461 170.242 186.977 170.992C186.492 171.742 186.117 172.648 185.852 173.711C185.602 174.758 185.477 175.938 185.477 177.25V178.188C185.477 179.297 185.625 180.328 185.922 181.281C186.234 182.219 186.688 183.039 187.281 183.742C187.875 184.445 188.594 185 189.438 185.406C190.281 185.797 191.242 185.992 192.32 185.992C193.68 185.992 194.891 185.719 195.953 185.172C197.016 184.625 197.938 183.852 198.719 182.852L201.695 185.734C201.148 186.531 200.438 187.297 199.562 188.031C198.688 188.75 197.617 189.336 196.352 189.789C195.102 190.242 193.648 190.469 191.992 190.469ZM318.578 187.188C318.578 186.312 318.875 185.578 319.469 184.984C320.062 184.375 320.867 184.07 321.883 184.07C322.914 184.07 323.719 184.375 324.297 184.984C324.891 185.578 325.188 186.312 325.188 187.188C325.188 188.062 324.891 188.797 324.297 189.391C323.719 189.984 322.914 190.281 321.883 190.281C320.867 190.281 320.062 189.984 319.469 189.391C318.875 188.797 318.578 188.062 318.578 187.188Z" fill="black"/>
<path d="M208.234 128.914V116.82C208.234 115.914 208.07 115.133 207.742 114.477C207.414 113.82 206.914 113.312 206.242 112.953C205.586 112.594 204.758 112.414 203.758 112.414C202.836 112.414 202.039 112.57 201.367 112.883C200.695 113.195 200.172 113.617 199.797 114.148C199.422 114.68 199.234 115.281 199.234 115.953H193.609C193.609 114.953 193.852 113.984 194.336 113.047C194.82 112.109 195.523 111.273 196.445 110.539C197.367 109.805 198.469 109.227 199.75 108.805C201.031 108.383 202.469 108.172 204.062 108.172C205.969 108.172 207.656 108.492 209.125 109.133C210.609 109.773 211.773 110.742 212.617 112.039C213.477 113.32 213.906 114.93 213.906 116.867V128.141C213.906 129.297 213.984 130.336 214.141 131.258C214.312 132.164 214.555 132.953 214.867 133.625V134H209.078C208.812 133.391 208.602 132.617 208.445 131.68C208.305 130.727 208.234 129.805 208.234 128.914ZM209.055 118.578L209.102 122.07H205.047C204 122.07 203.078 122.172 202.281 122.375C201.484 122.562 200.82 122.844 200.289 123.219C199.758 123.594 199.359 124.047 199.094 124.578C198.828 125.109 198.695 125.711 198.695 126.383C198.695 127.055 198.852 127.672 199.164 128.234C199.477 128.781 199.93 129.211 200.523 129.523C201.133 129.836 201.867 129.992 202.727 129.992C203.883 129.992 204.891 129.758 205.75 129.289C206.625 128.805 207.312 128.219 207.812 127.531C208.312 126.828 208.578 126.164 208.609 125.539L210.438 128.047C210.25 128.688 209.93 129.375 209.477 130.109C209.023 130.844 208.43 131.547 207.695 132.219C206.977 132.875 206.109 133.414 205.094 133.836C204.094 134.258 202.938 134.469 201.625 134.469C199.969 134.469 198.492 134.141 197.195 133.484C195.898 132.812 194.883 131.914 194.148 130.789C193.414 129.648 193.047 128.359 193.047 126.922C193.047 125.578 193.297 124.391 193.797 123.359C194.312 122.312 195.062 121.438 196.047 120.734C197.047 120.031 198.266 119.5 199.703 119.141C201.141 118.766 202.781 118.578 204.625 118.578H209.055ZM225.484 113.516V143.75H219.836V108.641H225.039L225.484 113.516ZM242.008 121.086V121.578C242.008 123.422 241.789 125.133 241.352 126.711C240.93 128.273 240.297 129.641 239.453 130.812C238.625 131.969 237.602 132.867 236.383 133.508C235.164 134.148 233.758 134.469 232.164 134.469C230.586 134.469 229.203 134.18 228.016 133.602C226.844 133.008 225.852 132.172 225.039 131.094C224.227 130.016 223.57 128.75 223.07 127.297C222.586 125.828 222.242 124.219 222.039 122.469V120.57C222.242 118.711 222.586 117.023 223.07 115.508C223.57 113.992 224.227 112.688 225.039 111.594C225.852 110.5 226.844 109.656 228.016 109.062C229.188 108.469 230.555 108.172 232.117 108.172C233.711 108.172 235.125 108.484 236.359 109.109C237.594 109.719 238.633 110.594 239.477 111.734C240.32 112.859 240.953 114.219 241.375 115.812C241.797 117.391 242.008 119.148 242.008 121.086ZM236.359 121.578V121.086C236.359 119.914 236.25 118.828 236.031 117.828C235.812 116.812 235.469 115.922 235 115.156C234.531 114.391 233.93 113.797 233.195 113.375C232.477 112.938 231.609 112.719 230.594 112.719C229.594 112.719 228.734 112.891 228.016 113.234C227.297 113.562 226.695 114.023 226.211 114.617C225.727 115.211 225.352 115.906 225.086 116.703C224.82 117.484 224.633 118.336 224.523 119.258V123.805C224.711 124.93 225.031 125.961 225.484 126.898C225.938 127.836 226.578 128.586 227.406 129.148C228.25 129.695 229.328 129.969 230.641 129.969C231.656 129.969 232.523 129.75 233.242 129.312C233.961 128.875 234.547 128.273 235 127.508C235.469 126.727 235.812 125.828 236.031 124.812C236.25 123.797 236.359 122.719 236.359 121.578ZM252.484 113.516V143.75H246.836V108.641H252.039L252.484 113.516ZM269.008 121.086V121.578C269.008 123.422 268.789 125.133 268.352 126.711C267.93 128.273 267.297 129.641 266.453 130.812C265.625 131.969 264.602 132.867 263.383 133.508C262.164 134.148 260.758 134.469 259.164 134.469C257.586 134.469 256.203 134.18 255.016 133.602C253.844 133.008 252.852 132.172 252.039 131.094C251.227 130.016 250.57 128.75 250.07 127.297C249.586 125.828 249.242 124.219 249.039 122.469V120.57C249.242 118.711 249.586 117.023 250.07 115.508C250.57 113.992 251.227 112.688 252.039 111.594C252.852 110.5 253.844 109.656 255.016 109.062C256.188 108.469 257.555 108.172 259.117 108.172C260.711 108.172 262.125 108.484 263.359 109.109C264.594 109.719 265.633 110.594 266.477 111.734C267.32 112.859 267.953 114.219 268.375 115.812C268.797 117.391 269.008 119.148 269.008 121.086ZM263.359 121.578V121.086C263.359 119.914 263.25 118.828 263.031 117.828C262.812 116.812 262.469 115.922 262 115.156C261.531 114.391 260.93 113.797 260.195 113.375C259.477 112.938 258.609 112.719 257.594 112.719C256.594 112.719 255.734 112.891 255.016 113.234C254.297 113.562 253.695 114.023 253.211 114.617C252.727 115.211 252.352 115.906 252.086 116.703C251.82 117.484 251.633 118.336 251.523 119.258V123.805C251.711 124.93 252.031 125.961 252.484 126.898C252.938 127.836 253.578 128.586 254.406 129.148C255.25 129.695 256.328 129.969 257.641 129.969C258.656 129.969 259.523 129.75 260.242 129.312C260.961 128.875 261.547 128.273 262 127.508C262.469 126.727 262.812 125.828 263.031 124.812C263.25 123.797 263.359 122.719 263.359 121.578ZM288.039 127.133C288.039 126.57 287.898 126.062 287.617 125.609C287.336 125.141 286.797 124.719 286 124.344C285.219 123.969 284.062 123.625 282.531 123.312C281.188 123.016 279.953 122.664 278.828 122.258C277.719 121.836 276.766 121.328 275.969 120.734C275.172 120.141 274.555 119.438 274.117 118.625C273.68 117.812 273.461 116.875 273.461 115.812C273.461 114.781 273.688 113.805 274.141 112.883C274.594 111.961 275.242 111.148 276.086 110.445C276.93 109.742 277.953 109.188 279.156 108.781C280.375 108.375 281.734 108.172 283.234 108.172C285.359 108.172 287.18 108.531 288.695 109.25C290.227 109.953 291.398 110.914 292.211 112.133C293.023 113.336 293.43 114.695 293.43 116.211H287.781C287.781 115.539 287.609 114.914 287.266 114.336C286.938 113.742 286.438 113.266 285.766 112.906C285.094 112.531 284.25 112.344 283.234 112.344C282.266 112.344 281.461 112.5 280.82 112.812C280.195 113.109 279.727 113.5 279.414 113.984C279.117 114.469 278.969 115 278.969 115.578C278.969 116 279.047 116.383 279.203 116.727C279.375 117.055 279.656 117.359 280.047 117.641C280.438 117.906 280.969 118.156 281.641 118.391C282.328 118.625 283.188 118.852 284.219 119.07C286.156 119.477 287.82 120 289.211 120.641C290.617 121.266 291.695 122.078 292.445 123.078C293.195 124.062 293.57 125.312 293.57 126.828C293.57 127.953 293.328 128.984 292.844 129.922C292.375 130.844 291.688 131.648 290.781 132.336C289.875 133.008 288.789 133.531 287.523 133.906C286.273 134.281 284.867 134.469 283.305 134.469C281.008 134.469 279.062 134.062 277.469 133.25C275.875 132.422 274.664 131.367 273.836 130.086C273.023 128.789 272.617 127.445 272.617 126.055H278.078C278.141 127.102 278.43 127.938 278.945 128.562C279.477 129.172 280.133 129.617 280.914 129.898C281.711 130.164 282.531 130.297 283.375 130.297C284.391 130.297 285.242 130.164 285.93 129.898C286.617 129.617 287.141 129.242 287.5 128.773C287.859 128.289 288.039 127.742 288.039 127.133Z" fill="#F35555"/>
<path d="M229.68 190.469C227.805 190.469 226.109 190.164 224.594 189.555C223.094 188.93 221.812 188.062 220.75 186.953C219.703 185.844 218.898 184.539 218.336 183.039C217.773 181.539 217.492 179.922 217.492 178.188V177.25C217.492 175.266 217.781 173.469 218.359 171.859C218.938 170.25 219.742 168.875 220.773 167.734C221.805 166.578 223.023 165.695 224.43 165.086C225.836 164.477 227.359 164.172 229 164.172C230.812 164.172 232.398 164.477 233.758 165.086C235.117 165.695 236.242 166.555 237.133 167.664C238.039 168.758 238.711 170.062 239.148 171.578C239.602 173.094 239.828 174.766 239.828 176.594V179.008H220.234V174.953H234.25V174.508C234.219 173.492 234.016 172.539 233.641 171.648C233.281 170.758 232.727 170.039 231.977 169.492C231.227 168.945 230.227 168.672 228.977 168.672C228.039 168.672 227.203 168.875 226.469 169.281C225.75 169.672 225.148 170.242 224.664 170.992C224.18 171.742 223.805 172.648 223.539 173.711C223.289 174.758 223.164 175.938 223.164 177.25V178.188C223.164 179.297 223.312 180.328 223.609 181.281C223.922 182.219 224.375 183.039 224.969 183.742C225.562 184.445 226.281 185 227.125 185.406C227.969 185.797 228.93 185.992 230.008 185.992C231.367 185.992 232.578 185.719 233.641 185.172C234.703 184.625 235.625 183.852 236.406 182.852L239.383 185.734C238.836 186.531 238.125 187.297 237.25 188.031C236.375 188.75 235.305 189.336 234.039 189.789C232.789 190.242 231.336 190.469 229.68 190.469ZM258.531 184.914V172.82C258.531 171.914 258.367 171.133 258.039 170.477C257.711 169.82 257.211 169.312 256.539 168.953C255.883 168.594 255.055 168.414 254.055 168.414C253.133 168.414 252.336 168.57 251.664 168.883C250.992 169.195 250.469 169.617 250.094 170.148C249.719 170.68 249.531 171.281 249.531 171.953H243.906C243.906 170.953 244.148 169.984 244.633 169.047C245.117 168.109 245.82 167.273 246.742 166.539C247.664 165.805 248.766 165.227 250.047 164.805C251.328 164.383 252.766 164.172 254.359 164.172C256.266 164.172 257.953 164.492 259.422 165.133C260.906 165.773 262.07 166.742 262.914 168.039C263.773 169.32 264.203 170.93 264.203 172.867V184.141C264.203 185.297 264.281 186.336 264.438 187.258C264.609 188.164 264.852 188.953 265.164 189.625V190H259.375C259.109 189.391 258.898 188.617 258.742 187.68C258.602 186.727 258.531 185.805 258.531 184.914ZM259.352 174.578L259.398 178.07H255.344C254.297 178.07 253.375 178.172 252.578 178.375C251.781 178.562 251.117 178.844 250.586 179.219C250.055 179.594 249.656 180.047 249.391 180.578C249.125 181.109 248.992 181.711 248.992 182.383C248.992 183.055 249.148 183.672 249.461 184.234C249.773 184.781 250.227 185.211 250.82 185.523C251.43 185.836 252.164 185.992 253.023 185.992C254.18 185.992 255.188 185.758 256.047 185.289C256.922 184.805 257.609 184.219 258.109 183.531C258.609 182.828 258.875 182.164 258.906 181.539L260.734 184.047C260.547 184.688 260.227 185.375 259.773 186.109C259.32 186.844 258.727 187.547 257.992 188.219C257.273 188.875 256.406 189.414 255.391 189.836C254.391 190.258 253.234 190.469 251.922 190.469C250.266 190.469 248.789 190.141 247.492 189.484C246.195 188.812 245.18 187.914 244.445 186.789C243.711 185.648 243.344 184.359 243.344 182.922C243.344 181.578 243.594 180.391 244.094 179.359C244.609 178.312 245.359 177.438 246.344 176.734C247.344 176.031 248.562 175.5 250 175.141C251.438 174.766 253.078 174.578 254.922 174.578H259.352ZM284.336 183.133C284.336 182.57 284.195 182.062 283.914 181.609C283.633 181.141 283.094 180.719 282.297 180.344C281.516 179.969 280.359 179.625 278.828 179.312C277.484 179.016 276.25 178.664 275.125 178.258C274.016 177.836 273.062 177.328 272.266 176.734C271.469 176.141 270.852 175.438 270.414 174.625C269.977 173.812 269.758 172.875 269.758 171.812C269.758 170.781 269.984 169.805 270.438 168.883C270.891 167.961 271.539 167.148 272.383 166.445C273.227 165.742 274.25 165.188 275.453 164.781C276.672 164.375 278.031 164.172 279.531 164.172C281.656 164.172 283.477 164.531 284.992 165.25C286.523 165.953 287.695 166.914 288.508 168.133C289.32 169.336 289.727 170.695 289.727 172.211H284.078C284.078 171.539 283.906 170.914 283.562 170.336C283.234 169.742 282.734 169.266 282.062 168.906C281.391 168.531 280.547 168.344 279.531 168.344C278.562 168.344 277.758 168.5 277.117 168.812C276.492 169.109 276.023 169.5 275.711 169.984C275.414 170.469 275.266 171 275.266 171.578C275.266 172 275.344 172.383 275.5 172.727C275.672 173.055 275.953 173.359 276.344 173.641C276.734 173.906 277.266 174.156 277.938 174.391C278.625 174.625 279.484 174.852 280.516 175.07C282.453 175.477 284.117 176 285.508 176.641C286.914 177.266 287.992 178.078 288.742 179.078C289.492 180.062 289.867 181.312 289.867 182.828C289.867 183.953 289.625 184.984 289.141 185.922C288.672 186.844 287.984 187.648 287.078 188.336C286.172 189.008 285.086 189.531 283.82 189.906C282.57 190.281 281.164 190.469 279.602 190.469C277.305 190.469 275.359 190.062 273.766 189.25C272.172 188.422 270.961 187.367 270.133 186.086C269.32 184.789 268.914 183.445 268.914 182.055H274.375C274.438 183.102 274.727 183.938 275.242 184.562C275.773 185.172 276.43 185.617 277.211 185.898C278.008 186.164 278.828 186.297 279.672 186.297C280.688 186.297 281.539 186.164 282.227 185.898C282.914 185.617 283.438 185.242 283.797 184.773C284.156 184.289 284.336 183.742 284.336 183.133ZM302.172 187.234L309.062 164.641H315.109L304.938 193.867C304.703 194.492 304.398 195.172 304.023 195.906C303.648 196.641 303.156 197.336 302.547 197.992C301.953 198.664 301.211 199.203 300.32 199.609C299.43 200.031 298.352 200.242 297.086 200.242C296.586 200.242 296.102 200.195 295.633 200.102C295.18 200.023 294.75 199.938 294.344 199.844L294.32 195.531C294.477 195.547 294.664 195.562 294.883 195.578C295.117 195.594 295.305 195.602 295.445 195.602C296.383 195.602 297.164 195.484 297.789 195.25C298.414 195.031 298.922 194.672 299.312 194.172C299.719 193.672 300.062 193 300.344 192.156L302.172 187.234ZM298.281 164.641L304.305 183.625L305.312 189.578L301.398 190.586L292.188 164.641H298.281Z" fill="#49D127"/>
<path d="M244.711 250.605C244.711 250.254 244.656 249.941 244.547 249.668C244.445 249.395 244.262 249.145 243.996 248.918C243.73 248.691 243.355 248.473 242.871 248.262C242.395 248.043 241.785 247.82 241.043 247.594C240.23 247.344 239.48 247.066 238.793 246.762C238.113 246.449 237.52 246.09 237.012 245.684C236.504 245.27 236.109 244.797 235.828 244.266C235.547 243.727 235.406 243.105 235.406 242.402C235.406 241.707 235.551 241.074 235.84 240.504C236.137 239.934 236.555 239.441 237.094 239.027C237.641 238.605 238.285 238.281 239.027 238.055C239.77 237.82 240.59 237.703 241.488 237.703C242.754 237.703 243.844 237.938 244.758 238.406C245.68 238.875 246.387 239.504 246.879 240.293C247.379 241.082 247.629 241.953 247.629 242.906H244.711C244.711 242.344 244.59 241.848 244.348 241.418C244.113 240.98 243.754 240.637 243.27 240.387C242.793 240.137 242.188 240.012 241.453 240.012C240.758 240.012 240.18 240.117 239.719 240.328C239.258 240.539 238.914 240.824 238.688 241.184C238.461 241.543 238.348 241.949 238.348 242.402C238.348 242.723 238.422 243.016 238.57 243.281C238.719 243.539 238.945 243.781 239.25 244.008C239.555 244.227 239.938 244.434 240.398 244.629C240.859 244.824 241.402 245.012 242.027 245.191C242.973 245.473 243.797 245.785 244.5 246.129C245.203 246.465 245.789 246.848 246.258 247.277C246.727 247.707 247.078 248.195 247.312 248.742C247.547 249.281 247.664 249.895 247.664 250.582C247.664 251.301 247.52 251.949 247.23 252.527C246.941 253.098 246.527 253.586 245.988 253.992C245.457 254.391 244.816 254.699 244.066 254.918C243.324 255.129 242.496 255.234 241.582 255.234C240.762 255.234 239.953 255.125 239.156 254.906C238.367 254.688 237.648 254.355 237 253.91C236.352 253.457 235.836 252.895 235.453 252.223C235.07 251.543 234.879 250.75 234.879 249.844H237.82C237.82 250.398 237.914 250.871 238.102 251.262C238.297 251.652 238.566 251.973 238.91 252.223C239.254 252.465 239.652 252.645 240.105 252.762C240.566 252.879 241.059 252.938 241.582 252.938C242.27 252.938 242.844 252.84 243.305 252.645C243.773 252.449 244.125 252.176 244.359 251.824C244.594 251.473 244.711 251.066 244.711 250.605ZM253.008 242.32V255H250.172V242.32H253.008ZM249.984 238.992C249.984 238.562 250.125 238.207 250.406 237.926C250.695 237.637 251.094 237.492 251.602 237.492C252.102 237.492 252.496 237.637 252.785 237.926C253.074 238.207 253.219 238.562 253.219 238.992C253.219 239.414 253.074 239.766 252.785 240.047C252.496 240.328 252.102 240.469 251.602 240.469C251.094 240.469 250.695 240.328 250.406 240.047C250.125 239.766 249.984 239.414 249.984 238.992ZM258.926 244.898V255H256.102V242.32H258.762L258.926 244.898ZM258.469 248.191L257.508 248.18C257.508 247.305 257.617 246.496 257.836 245.754C258.055 245.012 258.375 244.367 258.797 243.82C259.219 243.266 259.742 242.84 260.367 242.543C261 242.238 261.73 242.086 262.559 242.086C263.137 242.086 263.664 242.172 264.141 242.344C264.625 242.508 265.043 242.77 265.395 243.129C265.754 243.488 266.027 243.949 266.215 244.512C266.41 245.074 266.508 245.754 266.508 246.551V255H263.684V246.797C263.684 246.18 263.59 245.695 263.402 245.344C263.223 244.992 262.961 244.742 262.617 244.594C262.281 244.438 261.879 244.359 261.41 244.359C260.879 244.359 260.426 244.461 260.051 244.664C259.684 244.867 259.383 245.145 259.148 245.496C258.914 245.848 258.742 246.254 258.633 246.715C258.523 247.176 258.469 247.668 258.469 248.191ZM266.332 247.441L265.008 247.734C265.008 246.969 265.113 246.246 265.324 245.566C265.543 244.879 265.859 244.277 266.273 243.762C266.695 243.238 267.215 242.828 267.832 242.531C268.449 242.234 269.156 242.086 269.953 242.086C270.602 242.086 271.18 242.176 271.688 242.355C272.203 242.527 272.641 242.801 273 243.176C273.359 243.551 273.633 244.039 273.82 244.641C274.008 245.234 274.102 245.953 274.102 246.797V255H271.266V246.785C271.266 246.145 271.172 245.648 270.984 245.297C270.805 244.945 270.547 244.703 270.211 244.57C269.875 244.43 269.473 244.359 269.004 244.359C268.566 244.359 268.18 244.441 267.844 244.605C267.516 244.762 267.238 244.984 267.012 245.273C266.785 245.555 266.613 245.879 266.496 246.246C266.387 246.613 266.332 247.012 266.332 247.441ZM279.844 244.758V259.875H277.02V242.32H279.621L279.844 244.758ZM288.105 248.543V248.789C288.105 249.711 287.996 250.566 287.777 251.355C287.566 252.137 287.25 252.82 286.828 253.406C286.414 253.984 285.902 254.434 285.293 254.754C284.684 255.074 283.98 255.234 283.184 255.234C282.395 255.234 281.703 255.09 281.109 254.801C280.523 254.504 280.027 254.086 279.621 253.547C279.215 253.008 278.887 252.375 278.637 251.648C278.395 250.914 278.223 250.109 278.121 249.234V248.285C278.223 247.355 278.395 246.512 278.637 245.754C278.887 244.996 279.215 244.344 279.621 243.797C280.027 243.25 280.523 242.828 281.109 242.531C281.695 242.234 282.379 242.086 283.16 242.086C283.957 242.086 284.664 242.242 285.281 242.555C285.898 242.859 286.418 243.297 286.84 243.867C287.262 244.43 287.578 245.109 287.789 245.906C288 246.695 288.105 247.574 288.105 248.543ZM285.281 248.789V248.543C285.281 247.957 285.227 247.414 285.117 246.914C285.008 246.406 284.836 245.961 284.602 245.578C284.367 245.195 284.066 244.898 283.699 244.688C283.34 244.469 282.906 244.359 282.398 244.359C281.898 244.359 281.469 244.445 281.109 244.617C280.75 244.781 280.449 245.012 280.207 245.309C279.965 245.605 279.777 245.953 279.645 246.352C279.512 246.742 279.418 247.168 279.363 247.629V249.902C279.457 250.465 279.617 250.98 279.844 251.449C280.07 251.918 280.391 252.293 280.805 252.574C281.227 252.848 281.766 252.984 282.422 252.984C282.93 252.984 283.363 252.875 283.723 252.656C284.082 252.438 284.375 252.137 284.602 251.754C284.836 251.363 285.008 250.914 285.117 250.406C285.227 249.898 285.281 249.359 285.281 248.789ZM293.531 237V255H290.695V237H293.531ZM302.215 255.234C301.277 255.234 300.43 255.082 299.672 254.777C298.922 254.465 298.281 254.031 297.75 253.477C297.227 252.922 296.824 252.27 296.543 251.52C296.262 250.77 296.121 249.961 296.121 249.094V248.625C296.121 247.633 296.266 246.734 296.555 245.93C296.844 245.125 297.246 244.438 297.762 243.867C298.277 243.289 298.887 242.848 299.59 242.543C300.293 242.238 301.055 242.086 301.875 242.086C302.781 242.086 303.574 242.238 304.254 242.543C304.934 242.848 305.496 243.277 305.941 243.832C306.395 244.379 306.73 245.031 306.949 245.789C307.176 246.547 307.289 247.383 307.289 248.297V249.504H297.492V247.477H304.5V247.254C304.484 246.746 304.383 246.27 304.195 245.824C304.016 245.379 303.738 245.02 303.363 244.746C302.988 244.473 302.488 244.336 301.863 244.336C301.395 244.336 300.977 244.438 300.609 244.641C300.25 244.836 299.949 245.121 299.707 245.496C299.465 245.871 299.277 246.324 299.145 246.855C299.02 247.379 298.957 247.969 298.957 248.625V249.094C298.957 249.648 299.031 250.164 299.18 250.641C299.336 251.109 299.562 251.52 299.859 251.871C300.156 252.223 300.516 252.5 300.938 252.703C301.359 252.898 301.84 252.996 302.379 252.996C303.059 252.996 303.664 252.859 304.195 252.586C304.727 252.312 305.188 251.926 305.578 251.426L307.066 252.867C306.793 253.266 306.438 253.648 306 254.016C305.562 254.375 305.027 254.668 304.395 254.895C303.77 255.121 303.043 255.234 302.215 255.234ZM326.918 252.668V255H317.859V252.668H326.918ZM318.691 237.938V255H315.75V237.938H318.691ZM325.734 245.062V247.359H317.859V245.062H325.734ZM326.859 237.938V240.281H317.859V237.938H326.859ZM336.188 252.457V246.41C336.188 245.957 336.105 245.566 335.941 245.238C335.777 244.91 335.527 244.656 335.191 244.477C334.863 244.297 334.449 244.207 333.949 244.207C333.488 244.207 333.09 244.285 332.754 244.441C332.418 244.598 332.156 244.809 331.969 245.074C331.781 245.34 331.688 245.641 331.688 245.977H328.875C328.875 245.477 328.996 244.992 329.238 244.523C329.48 244.055 329.832 243.637 330.293 243.27C330.754 242.902 331.305 242.613 331.945 242.402C332.586 242.191 333.305 242.086 334.102 242.086C335.055 242.086 335.898 242.246 336.633 242.566C337.375 242.887 337.957 243.371 338.379 244.02C338.809 244.66 339.023 245.465 339.023 246.434V252.07C339.023 252.648 339.062 253.168 339.141 253.629C339.227 254.082 339.348 254.477 339.504 254.812V255H336.609C336.477 254.695 336.371 254.309 336.293 253.84C336.223 253.363 336.188 252.902 336.188 252.457ZM336.598 247.289L336.621 249.035H334.594C334.07 249.035 333.609 249.086 333.211 249.188C332.812 249.281 332.48 249.422 332.215 249.609C331.949 249.797 331.75 250.023 331.617 250.289C331.484 250.555 331.418 250.855 331.418 251.191C331.418 251.527 331.496 251.836 331.652 252.117C331.809 252.391 332.035 252.605 332.332 252.762C332.637 252.918 333.004 252.996 333.434 252.996C334.012 252.996 334.516 252.879 334.945 252.645C335.383 252.402 335.727 252.109 335.977 251.766C336.227 251.414 336.359 251.082 336.375 250.77L337.289 252.023C337.195 252.344 337.035 252.688 336.809 253.055C336.582 253.422 336.285 253.773 335.918 254.109C335.559 254.438 335.125 254.707 334.617 254.918C334.117 255.129 333.539 255.234 332.883 255.234C332.055 255.234 331.316 255.07 330.668 254.742C330.02 254.406 329.512 253.957 329.145 253.395C328.777 252.824 328.594 252.18 328.594 251.461C328.594 250.789 328.719 250.195 328.969 249.68C329.227 249.156 329.602 248.719 330.094 248.367C330.594 248.016 331.203 247.75 331.922 247.57C332.641 247.383 333.461 247.289 334.383 247.289H336.598ZM349.09 251.566C349.09 251.285 349.02 251.031 348.879 250.805C348.738 250.57 348.469 250.359 348.07 250.172C347.68 249.984 347.102 249.812 346.336 249.656C345.664 249.508 345.047 249.332 344.484 249.129C343.93 248.918 343.453 248.664 343.055 248.367C342.656 248.07 342.348 247.719 342.129 247.312C341.91 246.906 341.801 246.438 341.801 245.906C341.801 245.391 341.914 244.902 342.141 244.441C342.367 243.98 342.691 243.574 343.113 243.223C343.535 242.871 344.047 242.594 344.648 242.391C345.258 242.188 345.938 242.086 346.688 242.086C347.75 242.086 348.66 242.266 349.418 242.625C350.184 242.977 350.77 243.457 351.176 244.066C351.582 244.668 351.785 245.348 351.785 246.105H348.961C348.961 245.77 348.875 245.457 348.703 245.168C348.539 244.871 348.289 244.633 347.953 244.453C347.617 244.266 347.195 244.172 346.688 244.172C346.203 244.172 345.801 244.25 345.48 244.406C345.168 244.555 344.934 244.75 344.777 244.992C344.629 245.234 344.555 245.5 344.555 245.789C344.555 246 344.594 246.191 344.672 246.363C344.758 246.527 344.898 246.68 345.094 246.82C345.289 246.953 345.555 247.078 345.891 247.195C346.234 247.312 346.664 247.426 347.18 247.535C348.148 247.738 348.98 248 349.676 248.32C350.379 248.633 350.918 249.039 351.293 249.539C351.668 250.031 351.855 250.656 351.855 251.414C351.855 251.977 351.734 252.492 351.492 252.961C351.258 253.422 350.914 253.824 350.461 254.168C350.008 254.504 349.465 254.766 348.832 254.953C348.207 255.141 347.504 255.234 346.723 255.234C345.574 255.234 344.602 255.031 343.805 254.625C343.008 254.211 342.402 253.684 341.988 253.043C341.582 252.395 341.379 251.723 341.379 251.027H344.109C344.141 251.551 344.285 251.969 344.543 252.281C344.809 252.586 345.137 252.809 345.527 252.949C345.926 253.082 346.336 253.148 346.758 253.148C347.266 253.148 347.691 253.082 348.035 252.949C348.379 252.809 348.641 252.621 348.82 252.387C349 252.145 349.09 251.871 349.09 251.566ZM358.008 253.617L361.453 242.32H364.477L359.391 256.934C359.273 257.246 359.121 257.586 358.934 257.953C358.746 258.32 358.5 258.668 358.195 258.996C357.898 259.332 357.527 259.602 357.082 259.805C356.637 260.016 356.098 260.121 355.465 260.121C355.215 260.121 354.973 260.098 354.738 260.051C354.512 260.012 354.297 259.969 354.094 259.922L354.082 257.766C354.16 257.773 354.254 257.781 354.363 257.789C354.48 257.797 354.574 257.801 354.645 257.801C355.113 257.801 355.504 257.742 355.816 257.625C356.129 257.516 356.383 257.336 356.578 257.086C356.781 256.836 356.953 256.5 357.094 256.078L358.008 253.617ZM356.062 242.32L359.074 251.812L359.578 254.789L357.621 255.293L353.016 242.32H356.062ZM378.996 240.211L373.898 255H370.816L377.238 237.938H379.207L378.996 240.211ZM383.262 255L378.152 240.211L377.93 237.938H379.91L386.355 255H383.262ZM383.016 248.672V251.004H373.734V248.672H383.016ZM390.609 244.758V259.875H387.785V242.32H390.387L390.609 244.758ZM398.871 248.543V248.789C398.871 249.711 398.762 250.566 398.543 251.355C398.332 252.137 398.016 252.82 397.594 253.406C397.18 253.984 396.668 254.434 396.059 254.754C395.449 255.074 394.746 255.234 393.949 255.234C393.16 255.234 392.469 255.09 391.875 254.801C391.289 254.504 390.793 254.086 390.387 253.547C389.98 253.008 389.652 252.375 389.402 251.648C389.16 250.914 388.988 250.109 388.887 249.234V248.285C388.988 247.355 389.16 246.512 389.402 245.754C389.652 244.996 389.98 244.344 390.387 243.797C390.793 243.25 391.289 242.828 391.875 242.531C392.461 242.234 393.145 242.086 393.926 242.086C394.723 242.086 395.43 242.242 396.047 242.555C396.664 242.859 397.184 243.297 397.605 243.867C398.027 244.43 398.344 245.109 398.555 245.906C398.766 246.695 398.871 247.574 398.871 248.543ZM396.047 248.789V248.543C396.047 247.957 395.992 247.414 395.883 246.914C395.773 246.406 395.602 245.961 395.367 245.578C395.133 245.195 394.832 244.898 394.465 244.688C394.105 244.469 393.672 244.359 393.164 244.359C392.664 244.359 392.234 244.445 391.875 244.617C391.516 244.781 391.215 245.012 390.973 245.309C390.73 245.605 390.543 245.953 390.41 246.352C390.277 246.742 390.184 247.168 390.129 247.629V249.902C390.223 250.465 390.383 250.98 390.609 251.449C390.836 251.918 391.156 252.293 391.57 252.574C391.992 252.848 392.531 252.984 393.188 252.984C393.695 252.984 394.129 252.875 394.488 252.656C394.848 252.438 395.141 252.137 395.367 251.754C395.602 251.363 395.773 250.914 395.883 250.406C395.992 249.898 396.047 249.359 396.047 248.789ZM404.109 244.758V259.875H401.285V242.32H403.887L404.109 244.758ZM412.371 248.543V248.789C412.371 249.711 412.262 250.566 412.043 251.355C411.832 252.137 411.516 252.82 411.094 253.406C410.68 253.984 410.168 254.434 409.559 254.754C408.949 255.074 408.246 255.234 407.449 255.234C406.66 255.234 405.969 255.09 405.375 254.801C404.789 254.504 404.293 254.086 403.887 253.547C403.48 253.008 403.152 252.375 402.902 251.648C402.66 250.914 402.488 250.109 402.387 249.234V248.285C402.488 247.355 402.66 246.512 402.902 245.754C403.152 244.996 403.48 244.344 403.887 243.797C404.293 243.25 404.789 242.828 405.375 242.531C405.961 242.234 406.645 242.086 407.426 242.086C408.223 242.086 408.93 242.242 409.547 242.555C410.164 242.859 410.684 243.297 411.105 243.867C411.527 244.43 411.844 245.109 412.055 245.906C412.266 246.695 412.371 247.574 412.371 248.543ZM409.547 248.789V248.543C409.547 247.957 409.492 247.414 409.383 246.914C409.273 246.406 409.102 245.961 408.867 245.578C408.633 245.195 408.332 244.898 407.965 244.688C407.605 244.469 407.172 244.359 406.664 244.359C406.164 244.359 405.734 244.445 405.375 244.617C405.016 244.781 404.715 245.012 404.473 245.309C404.23 245.605 404.043 245.953 403.91 246.352C403.777 246.742 403.684 247.168 403.629 247.629V249.902C403.723 250.465 403.883 250.98 404.109 251.449C404.336 251.918 404.656 252.293 405.07 252.574C405.492 252.848 406.031 252.984 406.688 252.984C407.195 252.984 407.629 252.875 407.988 252.656C408.348 252.438 408.641 252.137 408.867 251.754C409.102 251.363 409.273 250.914 409.383 250.406C409.492 249.898 409.547 249.359 409.547 248.789ZM421.887 251.566C421.887 251.285 421.816 251.031 421.676 250.805C421.535 250.57 421.266 250.359 420.867 250.172C420.477 249.984 419.898 249.812 419.133 249.656C418.461 249.508 417.844 249.332 417.281 249.129C416.727 248.918 416.25 248.664 415.852 248.367C415.453 248.07 415.145 247.719 414.926 247.312C414.707 246.906 414.598 246.438 414.598 245.906C414.598 245.391 414.711 244.902 414.938 244.441C415.164 243.98 415.488 243.574 415.91 243.223C416.332 242.871 416.844 242.594 417.445 242.391C418.055 242.188 418.734 242.086 419.484 242.086C420.547 242.086 421.457 242.266 422.215 242.625C422.98 242.977 423.566 243.457 423.973 244.066C424.379 244.668 424.582 245.348 424.582 246.105H421.758C421.758 245.77 421.672 245.457 421.5 245.168C421.336 244.871 421.086 244.633 420.75 244.453C420.414 244.266 419.992 244.172 419.484 244.172C419 244.172 418.598 244.25 418.277 244.406C417.965 244.555 417.73 244.75 417.574 244.992C417.426 245.234 417.352 245.5 417.352 245.789C417.352 246 417.391 246.191 417.469 246.363C417.555 246.527 417.695 246.68 417.891 246.82C418.086 246.953 418.352 247.078 418.688 247.195C419.031 247.312 419.461 247.426 419.977 247.535C420.945 247.738 421.777 248 422.473 248.32C423.176 248.633 423.715 249.039 424.09 249.539C424.465 250.031 424.652 250.656 424.652 251.414C424.652 251.977 424.531 252.492 424.289 252.961C424.055 253.422 423.711 253.824 423.258 254.168C422.805 254.504 422.262 254.766 421.629 254.953C421.004 255.141 420.301 255.234 419.52 255.234C418.371 255.234 417.398 255.031 416.602 254.625C415.805 254.211 415.199 253.684 414.785 253.043C414.379 252.395 414.176 251.723 414.176 251.027H416.906C416.938 251.551 417.082 251.969 417.34 252.281C417.605 252.586 417.934 252.809 418.324 252.949C418.723 253.082 419.133 253.148 419.555 253.148C420.062 253.148 420.488 253.082 420.832 252.949C421.176 252.809 421.438 252.621 421.617 252.387C421.797 252.145 421.887 251.871 421.887 251.566Z" fill="black"/>
<path d="M202.57 253.594C202.57 253.156 202.719 252.789 203.016 252.492C203.312 252.188 203.715 252.035 204.223 252.035C204.738 252.035 205.141 252.188 205.43 252.492C205.727 252.789 205.875 253.156 205.875 253.594C205.875 254.031 205.727 254.398 205.43 254.695C205.141 254.992 204.738 255.141 204.223 255.141C203.715 255.141 203.312 254.992 203.016 254.695C202.719 254.398 202.57 254.031 202.57 253.594ZM209.25 253.594C209.25 253.156 209.398 252.789 209.695 252.492C209.992 252.188 210.395 252.035 210.902 252.035C211.418 252.035 211.82 252.188 212.109 252.492C212.406 252.789 212.555 253.156 212.555 253.594C212.555 254.031 212.406 254.398 212.109 254.695C211.82 254.992 211.418 255.141 210.902 255.141C210.395 255.141 209.992 254.992 209.695 254.695C209.398 254.398 209.25 254.031 209.25 253.594ZM215.93 253.594C215.93 253.156 216.078 252.789 216.375 252.492C216.672 252.188 217.074 252.035 217.582 252.035C218.098 252.035 218.5 252.188 218.789 252.492C219.086 252.789 219.234 253.156 219.234 253.594C219.234 254.031 219.086 254.398 218.789 254.695C218.5 254.992 218.098 255.141 217.582 255.141C217.074 255.141 216.672 254.992 216.375 254.695C216.078 254.398 215.93 254.031 215.93 253.594Z" fill="black"/>
</svg>
