<svg width="512" height="352" viewBox="0 0 512 352" fill="none" xmlns="http://www.w3.org/2000/svg">
<rect width="512" height="352" fill="white"/>
<g clip-path="url(#clip0_105_127)">
<path d="M348.357 309C337.121 307.252 326.318 305.764 315.947 304.538L319.941 296.6C318.555 296.14 312.548 300.733 312.548 300.733L317.631 277.769C310.7 278.688 307.465 302.111 307.465 302.111L299.61 294.303L303.477 303.143C271.742 299.828 244.358 298.794 221.339 299.031L224.757 292.236C223.37 291.777 217.364 296.37 217.364 296.37L222.446 273.406C215.515 274.325 212.281 297.748 212.281 297.748L204.426 289.94L208.521 299.303C192.753 299.758 177.019 301.018 161.381 303.076C164.792 292.515 176.702 282.362 176.702 282.362C167.544 285.194 162.78 289.808 160.314 294.085C159.815 272.387 163.173 250.772 170.234 230.234C170.234 230.234 151.751 271.569 154.524 299.126L154.875 304.021C138.796 306.514 130.728 309 130.728 309H348.357Z" fill="#49D127"/>
<path d="M390.716 252.112C389.619 252.112 388.547 251.789 387.635 251.183C386.723 250.578 386.013 249.717 385.593 248.71C385.173 247.703 385.063 246.595 385.277 245.526C385.491 244.457 386.019 243.475 386.795 242.704C387.57 241.933 388.558 241.408 389.634 241.196C390.709 240.983 391.824 241.092 392.838 241.509C393.851 241.926 394.717 242.633 395.326 243.539C395.935 244.445 396.26 245.511 396.26 246.601C396.259 248.062 395.674 249.463 394.635 250.496C393.595 251.529 392.186 252.111 390.716 252.112V252.112ZM390.716 242.008C389.802 242.008 388.908 242.278 388.149 242.782C387.389 243.287 386.796 244.004 386.447 244.843C386.097 245.683 386.006 246.606 386.184 247.497C386.362 248.388 386.802 249.206 387.448 249.848C388.095 250.491 388.918 250.928 389.814 251.105C390.71 251.283 391.64 251.192 392.484 250.844C393.328 250.496 394.05 249.908 394.558 249.153C395.065 248.397 395.336 247.509 395.336 246.601C395.335 245.383 394.848 244.216 393.981 243.355C393.115 242.494 391.941 242.01 390.716 242.008V242.008Z" fill="#3F3D56"/>
<path d="M434.994 308.277H425.872V299.21H434.994V308.277ZM426.574 307.58H434.292V299.908H426.574V307.58Z" fill="#3F3D56"/>
<path d="M126.174 308.773L119.952 302.143L126.622 295.959L132.844 302.589L126.174 308.773ZM120.944 302.177L126.208 307.787L131.852 302.555L126.588 296.944L120.944 302.177Z" fill="#3F3D56"/>
<path d="M457.635 307.765H61.2673V308.684H457.635V307.765Z" fill="#3F3D56"/>
<path d="M306.992 103.433V133.598C306.991 133.877 306.879 134.144 306.681 134.341C306.483 134.538 306.214 134.649 305.934 134.65H305.18V291.791C305.18 296.139 303.442 300.309 300.349 303.384C297.255 306.459 293.06 308.187 288.685 308.187H189.901C187.735 308.187 185.591 307.762 183.59 306.938C181.589 306.114 179.771 304.906 178.239 303.384C176.708 301.861 175.493 300.054 174.665 298.065C173.836 296.075 173.41 293.944 173.41 291.791V140.161H172.865C172.667 140.161 172.477 140.084 172.337 139.945C172.197 139.806 172.117 139.618 172.117 139.421V122.254C172.117 122.156 172.136 122.059 172.173 121.969C172.211 121.879 172.266 121.797 172.336 121.728C172.405 121.659 172.488 121.604 172.579 121.566C172.669 121.529 172.767 121.51 172.865 121.51H173.41V115.043H172.86C172.653 115.042 172.454 114.96 172.308 114.813C172.161 114.667 172.079 114.469 172.08 114.262V97.3289C172.08 97.1232 172.163 96.9261 172.309 96.7807C172.455 96.6352 172.654 96.5533 172.86 96.5527H173.41V87.7255H172.851C172.76 87.7256 172.67 87.7078 172.586 87.6733C172.502 87.6387 172.425 87.5879 172.361 87.5239C172.296 87.46 172.245 87.384 172.211 87.3003C172.176 87.2167 172.158 87.127 172.158 87.0365V77.7959C172.158 77.6127 172.23 77.4367 172.36 77.3067C172.49 77.1767 172.667 77.1032 172.851 77.1024H173.41V58.3915C173.41 54.0443 175.148 49.8751 178.241 46.8011C181.333 43.7272 185.528 42.0002 189.901 42H288.685C293.059 42 297.254 43.7268 300.347 46.8007C303.441 49.8745 305.179 54.0438 305.18 58.3915V102.381H305.934C306.214 102.382 306.483 102.493 306.681 102.69C306.879 102.887 306.991 103.154 306.992 103.433V103.433Z" fill="black"/>
<path d="M70.4907 293.231C76.2334 303.817 88.4214 308.361 88.4214 308.361C88.4214 308.361 91.2987 295.742 85.556 285.157C79.8134 274.571 67.6254 270.026 67.6254 270.026C67.6254 270.026 64.7481 282.645 70.4907 293.231Z" fill="#49D127"/>
<path d="M74.4379 289.748C84.8058 295.949 88.7988 308.264 88.7988 308.264C88.7988 308.264 75.9822 310.526 65.6143 304.326C55.2464 298.126 51.2534 285.811 51.2534 285.811C51.2534 285.811 64.0701 283.548 74.4379 289.748Z" fill="#0085FF"/>
<path d="M244.031 51.6448H228.585C228.121 51.6444 227.677 51.4614 227.349 51.1362C227.021 50.8109 226.837 50.3699 226.836 49.9098V49.2463C226.837 48.7863 227.021 48.3453 227.349 48.02C227.677 47.6948 228.121 47.5118 228.585 47.5114H244.031C244.495 47.5118 244.939 47.6948 245.267 48.02C245.595 48.3453 245.78 48.7863 245.78 49.2463V49.9098C245.78 50.3699 245.595 50.8109 245.267 51.1362C244.939 51.4614 244.495 51.6444 244.031 51.6448V51.6448Z" fill="white"/>
<path d="M250.401 51.6448C251.677 51.6448 252.711 50.7195 252.711 49.5781C252.711 48.4367 251.677 47.5114 250.401 47.5114C249.125 47.5114 248.091 48.4367 248.091 49.5781C248.091 50.7195 249.125 51.6448 250.401 51.6448Z" fill="white"/>
<path d="M288.202 46.5928H272.744V48.4416C272.744 50.77 271.814 53.0029 270.159 54.6493C268.503 56.2957 266.258 57.2206 263.917 57.2206H214.671C213.512 57.2212 212.364 56.9947 211.294 56.5542C210.223 56.1137 209.25 55.4678 208.43 54.6534C207.611 53.8389 206.96 52.8719 206.516 51.8074C206.072 50.743 205.844 49.6021 205.843 48.4497V46.5928H191.349C188.506 46.5928 185.78 47.7159 183.77 49.7151C181.759 51.7143 180.63 54.4257 180.63 57.253V57.253V294.505C180.63 297.332 181.759 300.043 183.77 302.043C185.78 304.042 188.506 305.165 191.349 305.165H288.202C291.044 305.165 293.77 304.042 295.779 302.044C297.788 300.045 298.917 297.335 298.917 294.509V57.253C298.918 55.8536 298.641 54.4678 298.103 53.1747C297.565 51.8817 296.776 50.7066 295.782 49.7168C294.787 48.7269 293.606 47.9415 292.307 47.4055C291.007 46.8695 289.614 46.5933 288.206 46.5928H288.202Z" fill="white"/>
<path d="M260.487 276.69H219.06C216.098 276.69 213.257 275.504 211.163 273.394C209.068 271.284 207.892 268.422 207.892 265.438C207.892 262.453 209.068 259.591 211.163 257.481C213.257 255.371 216.098 254.185 219.06 254.185H260.487C263.449 254.185 266.29 255.371 268.384 257.481C270.479 259.591 271.656 262.453 271.656 265.438C271.656 268.422 270.479 271.284 268.384 273.394C266.29 275.504 263.449 276.69 260.487 276.69V276.69Z" fill="black"/>
<path d="M277.031 185.294H202.978C201.953 185.294 200.969 184.883 200.244 184.15C199.52 183.418 199.112 182.425 199.112 181.39C199.112 180.355 199.52 179.362 200.244 178.63C200.969 177.898 201.953 177.486 202.978 177.486H277.031C278.057 177.486 279.04 177.898 279.765 178.63C280.49 179.362 280.897 180.355 280.897 181.39C280.897 182.425 280.49 183.418 279.765 184.15C279.04 184.883 278.057 185.294 277.031 185.294V185.294Z" fill="#E6E6E6"/>
<path d="M277.031 196.317H202.978C201.953 196.317 200.969 195.929 200.244 195.24C199.52 194.551 199.112 193.617 199.112 192.642C199.112 191.668 199.52 190.733 200.244 190.044C200.969 189.355 201.953 188.968 202.978 188.968H277.031C278.057 188.968 279.04 189.355 279.765 190.044C280.49 190.733 280.897 191.668 280.897 192.642C280.897 193.617 280.49 194.551 279.765 195.24C279.04 195.929 278.057 196.317 277.031 196.317V196.317Z" fill="#E6E6E6"/>
<path d="M277.031 207.339H202.978C201.953 207.339 200.969 206.928 200.244 206.196C199.52 205.464 199.112 204.471 199.112 203.435C199.112 202.4 199.52 201.407 200.244 200.675C200.969 199.943 201.953 199.531 202.978 199.531H277.031C278.057 199.531 279.04 199.943 279.765 200.675C280.49 201.407 280.897 202.4 280.897 203.435C280.897 204.471 280.49 205.464 279.765 206.196C279.04 206.928 278.057 207.339 277.031 207.339V207.339Z" fill="#E6E6E6"/>
<path d="M277.031 219.28H202.978C201.953 219.28 200.969 218.845 200.244 218.07C199.52 217.294 199.112 216.243 199.112 215.147C199.112 214.051 199.52 212.999 200.244 212.224C200.969 211.449 201.953 211.013 202.978 211.013H277.031C278.057 211.013 279.04 211.449 279.765 212.224C280.49 212.999 280.897 214.051 280.897 215.147C280.897 216.243 280.49 217.294 279.765 218.07C279.04 218.845 278.057 219.28 277.031 219.28V219.28Z" fill="#E6E6E6"/>
<path d="M226.251 230.303H202.932C201.919 230.303 200.947 229.892 200.231 229.16C199.515 228.427 199.112 227.434 199.112 226.399C199.112 225.364 199.515 224.371 200.231 223.639C200.947 222.907 201.919 222.495 202.932 222.495H226.251C227.264 222.495 228.235 222.907 228.952 223.639C229.668 224.371 230.07 225.364 230.07 226.399C230.07 227.434 229.668 228.427 228.952 229.16C228.235 229.892 227.264 230.303 226.251 230.303H226.251Z" fill="#E6E6E6"/>
<path d="M288.304 154.063H191.706C190.852 154.062 190.033 153.719 189.43 153.108C188.826 152.498 188.486 151.67 188.485 150.807V78.3241C188.486 77.4608 188.826 76.6331 189.43 76.0226C190.033 75.4122 190.852 75.0688 191.706 75.0679H288.304C289.157 75.0688 289.976 75.4122 290.58 76.0227C291.184 76.6331 291.523 77.4608 291.524 78.3241V150.807C291.523 151.67 291.184 152.498 290.58 153.108C289.976 153.719 289.157 154.062 288.304 154.063Z" fill="#E6E6E6"/>
</g>
<defs>
<clipPath id="clip0_105_127">
<rect width="404" height="267" fill="white" transform="translate(54 42)"/>
</clipPath>
</defs>
</svg>
