<svg viewBox="0 0 1019 352" fill="none" xmlns="http://www.w3.org/2000/svg">
<rect x="-5" width="1024" height="352" fill="white"/>
<path d="M92.4219 109.211C92.4219 108.508 92.3125 107.883 92.0938 107.336C91.8906 106.789 91.5234 106.289 90.9922 105.836C90.4609 105.383 89.7109 104.945 88.7422 104.523C87.7891 104.086 86.5703 103.641 85.0859 103.188C83.4609 102.688 81.9609 102.133 80.5859 101.523C79.2266 100.898 78.0391 100.18 77.0234 99.3672C76.0078 98.5391 75.2188 97.5938 74.6562 96.5312C74.0938 95.4531 73.8125 94.2109 73.8125 92.8047C73.8125 91.4141 74.1016 90.1484 74.6797 89.0078C75.2734 87.8672 76.1094 86.8828 77.1875 86.0547C78.2812 85.2109 79.5703 84.5625 81.0547 84.1094C82.5391 83.6406 84.1797 83.4062 85.9766 83.4062C88.5078 83.4062 90.6875 83.875 92.5156 84.8125C94.3594 85.75 95.7734 87.0078 96.7578 88.5859C97.7578 90.1641 98.2578 91.9062 98.2578 93.8125H92.4219C92.4219 92.6875 92.1797 91.6953 91.6953 90.8359C91.2266 89.9609 90.5078 89.2734 89.5391 88.7734C88.5859 88.2734 87.375 88.0234 85.9062 88.0234C84.5156 88.0234 83.3594 88.2344 82.4375 88.6562C81.5156 89.0781 80.8281 89.6484 80.375 90.3672C79.9219 91.0859 79.6953 91.8984 79.6953 92.8047C79.6953 93.4453 79.8438 94.0312 80.1406 94.5625C80.4375 95.0781 80.8906 95.5625 81.5 96.0156C82.1094 96.4531 82.875 96.8672 83.7969 97.2578C84.7188 97.6484 85.8047 98.0234 87.0547 98.3828C88.9453 98.9453 90.5938 99.5703 92 100.258C93.4062 100.93 94.5781 101.695 95.5156 102.555C96.4531 103.414 97.1562 104.391 97.625 105.484C98.0938 106.562 98.3281 107.789 98.3281 109.164C98.3281 110.602 98.0391 111.898 97.4609 113.055C96.8828 114.195 96.0547 115.172 94.9766 115.984C93.9141 116.781 92.6328 117.398 91.1328 117.836C89.6484 118.258 87.9922 118.469 86.1641 118.469C84.5234 118.469 82.9062 118.25 81.3125 117.812C79.7344 117.375 78.2969 116.711 77 115.82C75.7031 114.914 74.6719 113.789 73.9062 112.445C73.1406 111.086 72.7578 109.5 72.7578 107.688H78.6406C78.6406 108.797 78.8281 109.742 79.2031 110.523C79.5938 111.305 80.1328 111.945 80.8203 112.445C81.5078 112.93 82.3047 113.289 83.2109 113.523C84.1328 113.758 85.1172 113.875 86.1641 113.875C87.5391 113.875 88.6875 113.68 89.6094 113.289C90.5469 112.898 91.25 112.352 91.7188 111.648C92.1875 110.945 92.4219 110.133 92.4219 109.211ZM109.016 92.6406V118H103.344V92.6406H109.016ZM102.969 85.9844C102.969 85.125 103.25 84.4141 103.812 83.8516C104.391 83.2734 105.188 82.9844 106.203 82.9844C107.203 82.9844 107.992 83.2734 108.57 83.8516C109.148 84.4141 109.438 85.125 109.438 85.9844C109.438 86.8281 109.148 87.5312 108.57 88.0938C107.992 88.6562 107.203 88.9375 106.203 88.9375C105.188 88.9375 104.391 88.6562 103.812 88.0938C103.25 87.5312 102.969 86.8281 102.969 85.9844ZM120.852 97.7969V118H115.203V92.6406H120.523L120.852 97.7969ZM119.938 104.383L118.016 104.359C118.016 102.609 118.234 100.992 118.672 99.5078C119.109 98.0234 119.75 96.7344 120.594 95.6406C121.438 94.5312 122.484 93.6797 123.734 93.0859C125 92.4766 126.461 92.1719 128.117 92.1719C129.273 92.1719 130.328 92.3438 131.281 92.6875C132.25 93.0156 133.086 93.5391 133.789 94.2578C134.508 94.9766 135.055 95.8984 135.43 97.0234C135.82 98.1484 136.016 99.5078 136.016 101.102V118H130.367V101.594C130.367 100.359 130.18 99.3906 129.805 98.6875C129.445 97.9844 128.922 97.4844 128.234 97.1875C127.562 96.875 126.758 96.7188 125.82 96.7188C124.758 96.7188 123.852 96.9219 123.102 97.3281C122.367 97.7344 121.766 98.2891 121.297 98.9922C120.828 99.6953 120.484 100.508 120.266 101.43C120.047 102.352 119.938 103.336 119.938 104.383ZM135.664 102.883L133.016 103.469C133.016 101.938 133.227 100.492 133.648 99.1328C134.086 97.7578 134.719 96.5547 135.547 95.5234C136.391 94.4766 137.43 93.6562 138.664 93.0625C139.898 92.4688 141.312 92.1719 142.906 92.1719C144.203 92.1719 145.359 92.3516 146.375 92.7109C147.406 93.0547 148.281 93.6016 149 94.3516C149.719 95.1016 150.266 96.0781 150.641 97.2812C151.016 98.4688 151.203 99.9062 151.203 101.594V118H145.531V101.57C145.531 100.289 145.344 99.2969 144.969 98.5938C144.609 97.8906 144.094 97.4062 143.422 97.1406C142.75 96.8594 141.945 96.7188 141.008 96.7188C140.133 96.7188 139.359 96.8828 138.688 97.2109C138.031 97.5234 137.477 97.9688 137.023 98.5469C136.57 99.1094 136.227 99.7578 135.992 100.492C135.773 101.227 135.664 102.023 135.664 102.883ZM162.688 97.5156V127.75H157.039V92.6406H162.242L162.688 97.5156ZM179.211 105.086V105.578C179.211 107.422 178.992 109.133 178.555 110.711C178.133 112.273 177.5 113.641 176.656 114.812C175.828 115.969 174.805 116.867 173.586 117.508C172.367 118.148 170.961 118.469 169.367 118.469C167.789 118.469 166.406 118.18 165.219 117.602C164.047 117.008 163.055 116.172 162.242 115.094C161.43 114.016 160.773 112.75 160.273 111.297C159.789 109.828 159.445 108.219 159.242 106.469V104.57C159.445 102.711 159.789 101.023 160.273 99.5078C160.773 97.9922 161.43 96.6875 162.242 95.5938C163.055 94.5 164.047 93.6562 165.219 93.0625C166.391 92.4688 167.758 92.1719 169.32 92.1719C170.914 92.1719 172.328 92.4844 173.562 93.1094C174.797 93.7188 175.836 94.5938 176.68 95.7344C177.523 96.8594 178.156 98.2188 178.578 99.8125C179 101.391 179.211 103.148 179.211 105.086ZM173.562 105.578V105.086C173.562 103.914 173.453 102.828 173.234 101.828C173.016 100.812 172.672 99.9219 172.203 99.1562C171.734 98.3906 171.133 97.7969 170.398 97.375C169.68 96.9375 168.812 96.7188 167.797 96.7188C166.797 96.7188 165.938 96.8906 165.219 97.2344C164.5 97.5625 163.898 98.0234 163.414 98.6172C162.93 99.2109 162.555 99.9062 162.289 100.703C162.023 101.484 161.836 102.336 161.727 103.258V107.805C161.914 108.93 162.234 109.961 162.688 110.898C163.141 111.836 163.781 112.586 164.609 113.148C165.453 113.695 166.531 113.969 167.844 113.969C168.859 113.969 169.727 113.75 170.445 113.312C171.164 112.875 171.75 112.273 172.203 111.508C172.672 110.727 173.016 109.828 173.234 108.812C173.453 107.797 173.562 106.719 173.562 105.578ZM190.062 82V118H184.391V82H190.062ZM207.43 118.469C205.555 118.469 203.859 118.164 202.344 117.555C200.844 116.93 199.562 116.062 198.5 114.953C197.453 113.844 196.648 112.539 196.086 111.039C195.523 109.539 195.242 107.922 195.242 106.188V105.25C195.242 103.266 195.531 101.469 196.109 99.8594C196.688 98.25 197.492 96.875 198.523 95.7344C199.555 94.5781 200.773 93.6953 202.18 93.0859C203.586 92.4766 205.109 92.1719 206.75 92.1719C208.562 92.1719 210.148 92.4766 211.508 93.0859C212.867 93.6953 213.992 94.5547 214.883 95.6641C215.789 96.7578 216.461 98.0625 216.898 99.5781C217.352 101.094 217.578 102.766 217.578 104.594V107.008H197.984V102.953H212V102.508C211.969 101.492 211.766 100.539 211.391 99.6484C211.031 98.7578 210.477 98.0391 209.727 97.4922C208.977 96.9453 207.977 96.6719 206.727 96.6719C205.789 96.6719 204.953 96.875 204.219 97.2812C203.5 97.6719 202.898 98.2422 202.414 98.9922C201.93 99.7422 201.555 100.648 201.289 101.711C201.039 102.758 200.914 103.938 200.914 105.25V106.188C200.914 107.297 201.062 108.328 201.359 109.281C201.672 110.219 202.125 111.039 202.719 111.742C203.312 112.445 204.031 113 204.875 113.406C205.719 113.797 206.68 113.992 207.758 113.992C209.117 113.992 210.328 113.719 211.391 113.172C212.453 112.625 213.375 111.852 214.156 110.852L217.133 113.734C216.586 114.531 215.875 115.297 215 116.031C214.125 116.75 213.055 117.336 211.789 117.789C210.539 118.242 209.086 118.469 207.43 118.469Z" fill="#49D127"/>
<path d="M362.094 92.6406V96.7656H347.797V92.6406H362.094ZM351.922 86.4297H357.57V110.992C357.57 111.773 357.68 112.375 357.898 112.797C358.133 113.203 358.453 113.477 358.859 113.617C359.266 113.758 359.742 113.828 360.289 113.828C360.68 113.828 361.055 113.805 361.414 113.758C361.773 113.711 362.062 113.664 362.281 113.617L362.305 117.93C361.836 118.07 361.289 118.195 360.664 118.305C360.055 118.414 359.352 118.469 358.555 118.469C357.258 118.469 356.109 118.242 355.109 117.789C354.109 117.32 353.328 116.562 352.766 115.516C352.203 114.469 351.922 113.078 351.922 111.344V86.4297ZM364.812 105.602V105.062C364.812 103.234 365.078 101.539 365.609 99.9766C366.141 98.3984 366.906 97.0312 367.906 95.875C368.922 94.7031 370.156 93.7969 371.609 93.1562C373.078 92.5 374.734 92.1719 376.578 92.1719C378.438 92.1719 380.094 92.5 381.547 93.1562C383.016 93.7969 384.258 94.7031 385.273 95.875C386.289 97.0312 387.062 98.3984 387.594 99.9766C388.125 101.539 388.391 103.234 388.391 105.062V105.602C388.391 107.43 388.125 109.125 387.594 110.688C387.062 112.25 386.289 113.617 385.273 114.789C384.258 115.945 383.023 116.852 381.57 117.508C380.117 118.148 378.469 118.469 376.625 118.469C374.766 118.469 373.102 118.148 371.633 117.508C370.18 116.852 368.945 115.945 367.93 114.789C366.914 113.617 366.141 112.25 365.609 110.688C365.078 109.125 364.812 107.43 364.812 105.602ZM370.461 105.062V105.602C370.461 106.742 370.578 107.82 370.812 108.836C371.047 109.852 371.414 110.742 371.914 111.508C372.414 112.273 373.055 112.875 373.836 113.312C374.617 113.75 375.547 113.969 376.625 113.969C377.672 113.969 378.578 113.75 379.344 113.312C380.125 112.875 380.766 112.273 381.266 111.508C381.766 110.742 382.133 109.852 382.367 108.836C382.617 107.82 382.742 106.742 382.742 105.602V105.062C382.742 103.938 382.617 102.875 382.367 101.875C382.133 100.859 381.758 99.9609 381.242 99.1797C380.742 98.3984 380.102 97.7891 379.32 97.3516C378.555 96.8984 377.641 96.6719 376.578 96.6719C375.516 96.6719 374.594 96.8984 373.812 97.3516C373.047 97.7891 372.414 98.3984 371.914 99.1797C371.414 99.9609 371.047 100.859 370.812 101.875C370.578 102.875 370.461 103.938 370.461 105.062ZM410.727 97.7969V118H405.078V92.6406H410.398L410.727 97.7969ZM409.812 104.383L407.891 104.359C407.891 102.609 408.109 100.992 408.547 99.5078C408.984 98.0234 409.625 96.7344 410.469 95.6406C411.312 94.5312 412.359 93.6797 413.609 93.0859C414.875 92.4766 416.336 92.1719 417.992 92.1719C419.148 92.1719 420.203 92.3438 421.156 92.6875C422.125 93.0156 422.961 93.5391 423.664 94.2578C424.383 94.9766 424.93 95.8984 425.305 97.0234C425.695 98.1484 425.891 99.5078 425.891 101.102V118H420.242V101.594C420.242 100.359 420.055 99.3906 419.68 98.6875C419.32 97.9844 418.797 97.4844 418.109 97.1875C417.438 96.875 416.633 96.7188 415.695 96.7188C414.633 96.7188 413.727 96.9219 412.977 97.3281C412.242 97.7344 411.641 98.2891 411.172 98.9922C410.703 99.6953 410.359 100.508 410.141 101.43C409.922 102.352 409.812 103.336 409.812 104.383ZM425.539 102.883L422.891 103.469C422.891 101.938 423.102 100.492 423.523 99.1328C423.961 97.7578 424.594 96.5547 425.422 95.5234C426.266 94.4766 427.305 93.6562 428.539 93.0625C429.773 92.4688 431.188 92.1719 432.781 92.1719C434.078 92.1719 435.234 92.3516 436.25 92.7109C437.281 93.0547 438.156 93.6016 438.875 94.3516C439.594 95.1016 440.141 96.0781 440.516 97.2812C440.891 98.4688 441.078 99.9062 441.078 101.594V118H435.406V101.57C435.406 100.289 435.219 99.2969 434.844 98.5938C434.484 97.8906 433.969 97.4062 433.297 97.1406C432.625 96.8594 431.82 96.7188 430.883 96.7188C430.008 96.7188 429.234 96.8828 428.562 97.2109C427.906 97.5234 427.352 97.9688 426.898 98.5469C426.445 99.1094 426.102 99.7578 425.867 100.492C425.648 101.227 425.539 102.023 425.539 102.883ZM461.188 112.914V100.82C461.188 99.9141 461.023 99.1328 460.695 98.4766C460.367 97.8203 459.867 97.3125 459.195 96.9531C458.539 96.5938 457.711 96.4141 456.711 96.4141C455.789 96.4141 454.992 96.5703 454.32 96.8828C453.648 97.1953 453.125 97.6172 452.75 98.1484C452.375 98.6797 452.188 99.2812 452.188 99.9531H446.562C446.562 98.9531 446.805 97.9844 447.289 97.0469C447.773 96.1094 448.477 95.2734 449.398 94.5391C450.32 93.8047 451.422 93.2266 452.703 92.8047C453.984 92.3828 455.422 92.1719 457.016 92.1719C458.922 92.1719 460.609 92.4922 462.078 93.1328C463.562 93.7734 464.727 94.7422 465.57 96.0391C466.43 97.3203 466.859 98.9297 466.859 100.867V112.141C466.859 113.297 466.938 114.336 467.094 115.258C467.266 116.164 467.508 116.953 467.82 117.625V118H462.031C461.766 117.391 461.555 116.617 461.398 115.68C461.258 114.727 461.188 113.805 461.188 112.914ZM462.008 102.578L462.055 106.07H458C456.953 106.07 456.031 106.172 455.234 106.375C454.438 106.562 453.773 106.844 453.242 107.219C452.711 107.594 452.312 108.047 452.047 108.578C451.781 109.109 451.648 109.711 451.648 110.383C451.648 111.055 451.805 111.672 452.117 112.234C452.43 112.781 452.883 113.211 453.477 113.523C454.086 113.836 454.82 113.992 455.68 113.992C456.836 113.992 457.844 113.758 458.703 113.289C459.578 112.805 460.266 112.219 460.766 111.531C461.266 110.828 461.531 110.164 461.562 109.539L463.391 112.047C463.203 112.688 462.883 113.375 462.43 114.109C461.977 114.844 461.383 115.547 460.648 116.219C459.93 116.875 459.062 117.414 458.047 117.836C457.047 118.258 455.891 118.469 454.578 118.469C452.922 118.469 451.445 118.141 450.148 117.484C448.852 116.812 447.836 115.914 447.102 114.789C446.367 113.648 446 112.359 446 110.922C446 109.578 446.25 108.391 446.75 107.359C447.266 106.312 448.016 105.438 449 104.734C450 104.031 451.219 103.5 452.656 103.141C454.094 102.766 455.734 102.578 457.578 102.578H462.008ZM478.461 82V118H472.789V82H478.461ZM494.211 92.6406L483.172 104.875L477.125 111.062L475.648 106.281L480.219 100.633L487.391 92.6406H494.211ZM488.609 118L480.383 106.094L483.945 102.133L495.148 118H488.609ZM508.508 118.469C506.633 118.469 504.938 118.164 503.422 117.555C501.922 116.93 500.641 116.062 499.578 114.953C498.531 113.844 497.727 112.539 497.164 111.039C496.602 109.539 496.32 107.922 496.32 106.188V105.25C496.32 103.266 496.609 101.469 497.188 99.8594C497.766 98.25 498.57 96.875 499.602 95.7344C500.633 94.5781 501.852 93.6953 503.258 93.0859C504.664 92.4766 506.188 92.1719 507.828 92.1719C509.641 92.1719 511.227 92.4766 512.586 93.0859C513.945 93.6953 515.07 94.5547 515.961 95.6641C516.867 96.7578 517.539 98.0625 517.977 99.5781C518.43 101.094 518.656 102.766 518.656 104.594V107.008H499.062V102.953H513.078V102.508C513.047 101.492 512.844 100.539 512.469 99.6484C512.109 98.7578 511.555 98.0391 510.805 97.4922C510.055 96.9453 509.055 96.6719 507.805 96.6719C506.867 96.6719 506.031 96.875 505.297 97.2812C504.578 97.6719 503.977 98.2422 503.492 98.9922C503.008 99.7422 502.633 100.648 502.367 101.711C502.117 102.758 501.992 103.938 501.992 105.25V106.188C501.992 107.297 502.141 108.328 502.438 109.281C502.75 110.219 503.203 111.039 503.797 111.742C504.391 112.445 505.109 113 505.953 113.406C506.797 113.797 507.758 113.992 508.836 113.992C510.195 113.992 511.406 113.719 512.469 113.172C513.531 112.625 514.453 111.852 515.234 110.852L518.211 113.734C517.664 114.531 516.953 115.297 516.078 116.031C515.203 116.75 514.133 117.336 512.867 117.789C511.617 118.242 510.164 118.469 508.508 118.469ZM81.2656 171.234L88.1562 148.641H94.2031L84.0312 177.867C83.7969 178.492 83.4922 179.172 83.1172 179.906C82.7422 180.641 82.25 181.336 81.6406 181.992C81.0469 182.664 80.3047 183.203 79.4141 183.609C78.5234 184.031 77.4453 184.242 76.1797 184.242C75.6797 184.242 75.1953 184.195 74.7266 184.102C74.2734 184.023 73.8438 183.938 73.4375 183.844L73.4141 179.531C73.5703 179.547 73.7578 179.562 73.9766 179.578C74.2109 179.594 74.3984 179.602 74.5391 179.602C75.4766 179.602 76.2578 179.484 76.8828 179.25C77.5078 179.031 78.0156 178.672 78.4062 178.172C78.8125 177.672 79.1562 177 79.4375 176.156L81.2656 171.234ZM77.375 148.641L83.3984 167.625L84.4062 173.578L80.4922 174.586L71.2812 148.641H77.375ZM95.9844 161.602V161.062C95.9844 159.234 96.25 157.539 96.7812 155.977C97.3125 154.398 98.0781 153.031 99.0781 151.875C100.094 150.703 101.328 149.797 102.781 149.156C104.25 148.5 105.906 148.172 107.75 148.172C109.609 148.172 111.266 148.5 112.719 149.156C114.188 149.797 115.43 150.703 116.445 151.875C117.461 153.031 118.234 154.398 118.766 155.977C119.297 157.539 119.562 159.234 119.562 161.062V161.602C119.562 163.43 119.297 165.125 118.766 166.688C118.234 168.25 117.461 169.617 116.445 170.789C115.43 171.945 114.195 172.852 112.742 173.508C111.289 174.148 109.641 174.469 107.797 174.469C105.938 174.469 104.273 174.148 102.805 173.508C101.352 172.852 100.117 171.945 99.1016 170.789C98.0859 169.617 97.3125 168.25 96.7812 166.688C96.25 165.125 95.9844 163.43 95.9844 161.602ZM101.633 161.062V161.602C101.633 162.742 101.75 163.82 101.984 164.836C102.219 165.852 102.586 166.742 103.086 167.508C103.586 168.273 104.227 168.875 105.008 169.312C105.789 169.75 106.719 169.969 107.797 169.969C108.844 169.969 109.75 169.75 110.516 169.312C111.297 168.875 111.938 168.273 112.438 167.508C112.938 166.742 113.305 165.852 113.539 164.836C113.789 163.82 113.914 162.742 113.914 161.602V161.062C113.914 159.938 113.789 158.875 113.539 157.875C113.305 156.859 112.93 155.961 112.414 155.18C111.914 154.398 111.273 153.789 110.492 153.352C109.727 152.898 108.812 152.672 107.75 152.672C106.688 152.672 105.766 152.898 104.984 153.352C104.219 153.789 103.586 154.398 103.086 155.18C102.586 155.961 102.219 156.859 101.984 157.875C101.75 158.875 101.633 159.938 101.633 161.062ZM139.555 168.023V148.641H145.227V174H139.883L139.555 168.023ZM140.352 162.75L142.25 162.703C142.25 164.406 142.062 165.977 141.688 167.414C141.312 168.836 140.734 170.078 139.953 171.141C139.172 172.188 138.172 173.008 136.953 173.602C135.734 174.18 134.273 174.469 132.57 174.469C131.336 174.469 130.203 174.289 129.172 173.93C128.141 173.57 127.25 173.016 126.5 172.266C125.766 171.516 125.195 170.539 124.789 169.336C124.383 168.133 124.18 166.695 124.18 165.023V148.641H129.828V165.07C129.828 165.992 129.938 166.766 130.156 167.391C130.375 168 130.672 168.492 131.047 168.867C131.422 169.242 131.859 169.508 132.359 169.664C132.859 169.82 133.391 169.898 133.953 169.898C135.562 169.898 136.828 169.586 137.75 168.961C138.688 168.32 139.352 167.461 139.742 166.383C140.148 165.305 140.352 164.094 140.352 162.75ZM156.688 153.469V174H151.039V148.641H156.43L156.688 153.469ZM164.445 148.477L164.398 153.727C164.055 153.664 163.68 153.617 163.273 153.586C162.883 153.555 162.492 153.539 162.102 153.539C161.133 153.539 160.281 153.68 159.547 153.961C158.812 154.227 158.195 154.617 157.695 155.133C157.211 155.633 156.836 156.242 156.57 156.961C156.305 157.68 156.148 158.484 156.102 159.375L154.812 159.469C154.812 157.875 154.969 156.398 155.281 155.039C155.594 153.68 156.062 152.484 156.688 151.453C157.328 150.422 158.125 149.617 159.078 149.039C160.047 148.461 161.164 148.172 162.43 148.172C162.773 148.172 163.141 148.203 163.531 148.266C163.938 148.328 164.242 148.398 164.445 148.477ZM185.984 138V174H180.312V138H185.984ZM198.219 148.641V174H192.547V148.641H198.219ZM192.172 141.984C192.172 141.125 192.453 140.414 193.016 139.852C193.594 139.273 194.391 138.984 195.406 138.984C196.406 138.984 197.195 139.273 197.773 139.852C198.352 140.414 198.641 141.125 198.641 141.984C198.641 142.828 198.352 143.531 197.773 144.094C197.195 144.656 196.406 144.938 195.406 144.938C194.391 144.938 193.594 144.656 193.016 144.094C192.453 143.531 192.172 142.828 192.172 141.984ZM212.047 174H206.398V146.203C206.398 144.312 206.75 142.727 207.453 141.445C208.172 140.148 209.195 139.172 210.523 138.516C211.852 137.844 213.422 137.508 215.234 137.508C215.797 137.508 216.352 137.547 216.898 137.625C217.445 137.688 217.977 137.789 218.492 137.93L218.352 142.289C218.039 142.211 217.695 142.156 217.32 142.125C216.961 142.094 216.57 142.078 216.148 142.078C215.289 142.078 214.547 142.242 213.922 142.57C213.312 142.883 212.844 143.344 212.516 143.953C212.203 144.562 212.047 145.312 212.047 146.203V174ZM217.273 148.641V152.766H202.508V148.641H217.273ZM231.992 174.469C230.117 174.469 228.422 174.164 226.906 173.555C225.406 172.93 224.125 172.062 223.062 170.953C222.016 169.844 221.211 168.539 220.648 167.039C220.086 165.539 219.805 163.922 219.805 162.188V161.25C219.805 159.266 220.094 157.469 220.672 155.859C221.25 154.25 222.055 152.875 223.086 151.734C224.117 150.578 225.336 149.695 226.742 149.086C228.148 148.477 229.672 148.172 231.312 148.172C233.125 148.172 234.711 148.477 236.07 149.086C237.43 149.695 238.555 150.555 239.445 151.664C240.352 152.758 241.023 154.062 241.461 155.578C241.914 157.094 242.141 158.766 242.141 160.594V163.008H222.547V158.953H236.562V158.508C236.531 157.492 236.328 156.539 235.953 155.648C235.594 154.758 235.039 154.039 234.289 153.492C233.539 152.945 232.539 152.672 231.289 152.672C230.352 152.672 229.516 152.875 228.781 153.281C228.062 153.672 227.461 154.242 226.977 154.992C226.492 155.742 226.117 156.648 225.852 157.711C225.602 158.758 225.477 159.938 225.477 161.25V162.188C225.477 163.297 225.625 164.328 225.922 165.281C226.234 166.219 226.688 167.039 227.281 167.742C227.875 168.445 228.594 169 229.438 169.406C230.281 169.797 231.242 169.992 232.32 169.992C233.68 169.992 234.891 169.719 235.953 169.172C237.016 168.625 237.938 167.852 238.719 166.852L241.695 169.734C241.148 170.531 240.438 171.297 239.562 172.031C238.688 172.75 237.617 173.336 236.352 173.789C235.102 174.242 233.648 174.469 231.992 174.469ZM358.578 171.188C358.578 170.312 358.875 169.578 359.469 168.984C360.062 168.375 360.867 168.07 361.883 168.07C362.914 168.07 363.719 168.375 364.297 168.984C364.891 169.578 365.188 170.312 365.188 171.188C365.188 172.062 364.891 172.797 364.297 173.391C363.719 173.984 362.914 174.281 361.883 174.281C360.867 174.281 360.062 173.984 359.469 173.391C358.875 172.797 358.578 172.062 358.578 171.188Z" fill="black"/>
<path d="M248.234 112.914V100.82C248.234 99.9141 248.07 99.1328 247.742 98.4766C247.414 97.8203 246.914 97.3125 246.242 96.9531C245.586 96.5938 244.758 96.4141 243.758 96.4141C242.836 96.4141 242.039 96.5703 241.367 96.8828C240.695 97.1953 240.172 97.6172 239.797 98.1484C239.422 98.6797 239.234 99.2812 239.234 99.9531H233.609C233.609 98.9531 233.852 97.9844 234.336 97.0469C234.82 96.1094 235.523 95.2734 236.445 94.5391C237.367 93.8047 238.469 93.2266 239.75 92.8047C241.031 92.3828 242.469 92.1719 244.062 92.1719C245.969 92.1719 247.656 92.4922 249.125 93.1328C250.609 93.7734 251.773 94.7422 252.617 96.0391C253.477 97.3203 253.906 98.9297 253.906 100.867V112.141C253.906 113.297 253.984 114.336 254.141 115.258C254.312 116.164 254.555 116.953 254.867 117.625V118H249.078C248.812 117.391 248.602 116.617 248.445 115.68C248.305 114.727 248.234 113.805 248.234 112.914ZM249.055 102.578L249.102 106.07H245.047C244 106.07 243.078 106.172 242.281 106.375C241.484 106.562 240.82 106.844 240.289 107.219C239.758 107.594 239.359 108.047 239.094 108.578C238.828 109.109 238.695 109.711 238.695 110.383C238.695 111.055 238.852 111.672 239.164 112.234C239.477 112.781 239.93 113.211 240.523 113.523C241.133 113.836 241.867 113.992 242.727 113.992C243.883 113.992 244.891 113.758 245.75 113.289C246.625 112.805 247.312 112.219 247.812 111.531C248.312 110.828 248.578 110.164 248.609 109.539L250.438 112.047C250.25 112.688 249.93 113.375 249.477 114.109C249.023 114.844 248.43 115.547 247.695 116.219C246.977 116.875 246.109 117.414 245.094 117.836C244.094 118.258 242.938 118.469 241.625 118.469C239.969 118.469 238.492 118.141 237.195 117.484C235.898 116.812 234.883 115.914 234.148 114.789C233.414 113.648 233.047 112.359 233.047 110.922C233.047 109.578 233.297 108.391 233.797 107.359C234.312 106.312 235.062 105.438 236.047 104.734C237.047 104.031 238.266 103.5 239.703 103.141C241.141 102.766 242.781 102.578 244.625 102.578H249.055ZM265.484 97.5156V127.75H259.836V92.6406H265.039L265.484 97.5156ZM282.008 105.086V105.578C282.008 107.422 281.789 109.133 281.352 110.711C280.93 112.273 280.297 113.641 279.453 114.812C278.625 115.969 277.602 116.867 276.383 117.508C275.164 118.148 273.758 118.469 272.164 118.469C270.586 118.469 269.203 118.18 268.016 117.602C266.844 117.008 265.852 116.172 265.039 115.094C264.227 114.016 263.57 112.75 263.07 111.297C262.586 109.828 262.242 108.219 262.039 106.469V104.57C262.242 102.711 262.586 101.023 263.07 99.5078C263.57 97.9922 264.227 96.6875 265.039 95.5938C265.852 94.5 266.844 93.6562 268.016 93.0625C269.188 92.4688 270.555 92.1719 272.117 92.1719C273.711 92.1719 275.125 92.4844 276.359 93.1094C277.594 93.7188 278.633 94.5938 279.477 95.7344C280.32 96.8594 280.953 98.2188 281.375 99.8125C281.797 101.391 282.008 103.148 282.008 105.086ZM276.359 105.578V105.086C276.359 103.914 276.25 102.828 276.031 101.828C275.812 100.812 275.469 99.9219 275 99.1562C274.531 98.3906 273.93 97.7969 273.195 97.375C272.477 96.9375 271.609 96.7188 270.594 96.7188C269.594 96.7188 268.734 96.8906 268.016 97.2344C267.297 97.5625 266.695 98.0234 266.211 98.6172C265.727 99.2109 265.352 99.9062 265.086 100.703C264.82 101.484 264.633 102.336 264.523 103.258V107.805C264.711 108.93 265.031 109.961 265.484 110.898C265.938 111.836 266.578 112.586 267.406 113.148C268.25 113.695 269.328 113.969 270.641 113.969C271.656 113.969 272.523 113.75 273.242 113.312C273.961 112.875 274.547 112.273 275 111.508C275.469 110.727 275.812 109.828 276.031 108.812C276.25 107.797 276.359 106.719 276.359 105.578ZM292.484 97.5156V127.75H286.836V92.6406H292.039L292.484 97.5156ZM309.008 105.086V105.578C309.008 107.422 308.789 109.133 308.352 110.711C307.93 112.273 307.297 113.641 306.453 114.812C305.625 115.969 304.602 116.867 303.383 117.508C302.164 118.148 300.758 118.469 299.164 118.469C297.586 118.469 296.203 118.18 295.016 117.602C293.844 117.008 292.852 116.172 292.039 115.094C291.227 114.016 290.57 112.75 290.07 111.297C289.586 109.828 289.242 108.219 289.039 106.469V104.57C289.242 102.711 289.586 101.023 290.07 99.5078C290.57 97.9922 291.227 96.6875 292.039 95.5938C292.852 94.5 293.844 93.6562 295.016 93.0625C296.188 92.4688 297.555 92.1719 299.117 92.1719C300.711 92.1719 302.125 92.4844 303.359 93.1094C304.594 93.7188 305.633 94.5938 306.477 95.7344C307.32 96.8594 307.953 98.2188 308.375 99.8125C308.797 101.391 309.008 103.148 309.008 105.086ZM303.359 105.578V105.086C303.359 103.914 303.25 102.828 303.031 101.828C302.812 100.812 302.469 99.9219 302 99.1562C301.531 98.3906 300.93 97.7969 300.195 97.375C299.477 96.9375 298.609 96.7188 297.594 96.7188C296.594 96.7188 295.734 96.8906 295.016 97.2344C294.297 97.5625 293.695 98.0234 293.211 98.6172C292.727 99.2109 292.352 99.9062 292.086 100.703C291.82 101.484 291.633 102.336 291.523 103.258V107.805C291.711 108.93 292.031 109.961 292.484 110.898C292.938 111.836 293.578 112.586 294.406 113.148C295.25 113.695 296.328 113.969 297.641 113.969C298.656 113.969 299.523 113.75 300.242 113.312C300.961 112.875 301.547 112.273 302 111.508C302.469 110.727 302.812 109.828 303.031 108.812C303.25 107.797 303.359 106.719 303.359 105.578ZM328.039 111.133C328.039 110.57 327.898 110.062 327.617 109.609C327.336 109.141 326.797 108.719 326 108.344C325.219 107.969 324.062 107.625 322.531 107.312C321.188 107.016 319.953 106.664 318.828 106.258C317.719 105.836 316.766 105.328 315.969 104.734C315.172 104.141 314.555 103.438 314.117 102.625C313.68 101.812 313.461 100.875 313.461 99.8125C313.461 98.7812 313.688 97.8047 314.141 96.8828C314.594 95.9609 315.242 95.1484 316.086 94.4453C316.93 93.7422 317.953 93.1875 319.156 92.7812C320.375 92.375 321.734 92.1719 323.234 92.1719C325.359 92.1719 327.18 92.5312 328.695 93.25C330.227 93.9531 331.398 94.9141 332.211 96.1328C333.023 97.3359 333.43 98.6953 333.43 100.211H327.781C327.781 99.5391 327.609 98.9141 327.266 98.3359C326.938 97.7422 326.438 97.2656 325.766 96.9062C325.094 96.5312 324.25 96.3438 323.234 96.3438C322.266 96.3438 321.461 96.5 320.82 96.8125C320.195 97.1094 319.727 97.5 319.414 97.9844C319.117 98.4688 318.969 99 318.969 99.5781C318.969 100 319.047 100.383 319.203 100.727C319.375 101.055 319.656 101.359 320.047 101.641C320.438 101.906 320.969 102.156 321.641 102.391C322.328 102.625 323.188 102.852 324.219 103.07C326.156 103.477 327.82 104 329.211 104.641C330.617 105.266 331.695 106.078 332.445 107.078C333.195 108.062 333.57 109.312 333.57 110.828C333.57 111.953 333.328 112.984 332.844 113.922C332.375 114.844 331.688 115.648 330.781 116.336C329.875 117.008 328.789 117.531 327.523 117.906C326.273 118.281 324.867 118.469 323.305 118.469C321.008 118.469 319.062 118.062 317.469 117.25C315.875 116.422 314.664 115.367 313.836 114.086C313.023 112.789 312.617 111.445 312.617 110.055H318.078C318.141 111.102 318.43 111.938 318.945 112.562C319.477 113.172 320.133 113.617 320.914 113.898C321.711 114.164 322.531 114.297 323.375 114.297C324.391 114.297 325.242 114.164 325.93 113.898C326.617 113.617 327.141 113.242 327.5 112.773C327.859 112.289 328.039 111.742 328.039 111.133Z" fill="#F35555"/>
<path d="M269.68 174.469C267.805 174.469 266.109 174.164 264.594 173.555C263.094 172.93 261.812 172.062 260.75 170.953C259.703 169.844 258.898 168.539 258.336 167.039C257.773 165.539 257.492 163.922 257.492 162.188V161.25C257.492 159.266 257.781 157.469 258.359 155.859C258.938 154.25 259.742 152.875 260.773 151.734C261.805 150.578 263.023 149.695 264.43 149.086C265.836 148.477 267.359 148.172 269 148.172C270.812 148.172 272.398 148.477 273.758 149.086C275.117 149.695 276.242 150.555 277.133 151.664C278.039 152.758 278.711 154.062 279.148 155.578C279.602 157.094 279.828 158.766 279.828 160.594V163.008H260.234V158.953H274.25V158.508C274.219 157.492 274.016 156.539 273.641 155.648C273.281 154.758 272.727 154.039 271.977 153.492C271.227 152.945 270.227 152.672 268.977 152.672C268.039 152.672 267.203 152.875 266.469 153.281C265.75 153.672 265.148 154.242 264.664 154.992C264.18 155.742 263.805 156.648 263.539 157.711C263.289 158.758 263.164 159.938 263.164 161.25V162.188C263.164 163.297 263.312 164.328 263.609 165.281C263.922 166.219 264.375 167.039 264.969 167.742C265.562 168.445 266.281 169 267.125 169.406C267.969 169.797 268.93 169.992 270.008 169.992C271.367 169.992 272.578 169.719 273.641 169.172C274.703 168.625 275.625 167.852 276.406 166.852L279.383 169.734C278.836 170.531 278.125 171.297 277.25 172.031C276.375 172.75 275.305 173.336 274.039 173.789C272.789 174.242 271.336 174.469 269.68 174.469ZM298.531 168.914V156.82C298.531 155.914 298.367 155.133 298.039 154.477C297.711 153.82 297.211 153.312 296.539 152.953C295.883 152.594 295.055 152.414 294.055 152.414C293.133 152.414 292.336 152.57 291.664 152.883C290.992 153.195 290.469 153.617 290.094 154.148C289.719 154.68 289.531 155.281 289.531 155.953H283.906C283.906 154.953 284.148 153.984 284.633 153.047C285.117 152.109 285.82 151.273 286.742 150.539C287.664 149.805 288.766 149.227 290.047 148.805C291.328 148.383 292.766 148.172 294.359 148.172C296.266 148.172 297.953 148.492 299.422 149.133C300.906 149.773 302.07 150.742 302.914 152.039C303.773 153.32 304.203 154.93 304.203 156.867V168.141C304.203 169.297 304.281 170.336 304.438 171.258C304.609 172.164 304.852 172.953 305.164 173.625V174H299.375C299.109 173.391 298.898 172.617 298.742 171.68C298.602 170.727 298.531 169.805 298.531 168.914ZM299.352 158.578L299.398 162.07H295.344C294.297 162.07 293.375 162.172 292.578 162.375C291.781 162.562 291.117 162.844 290.586 163.219C290.055 163.594 289.656 164.047 289.391 164.578C289.125 165.109 288.992 165.711 288.992 166.383C288.992 167.055 289.148 167.672 289.461 168.234C289.773 168.781 290.227 169.211 290.82 169.523C291.43 169.836 292.164 169.992 293.023 169.992C294.18 169.992 295.188 169.758 296.047 169.289C296.922 168.805 297.609 168.219 298.109 167.531C298.609 166.828 298.875 166.164 298.906 165.539L300.734 168.047C300.547 168.688 300.227 169.375 299.773 170.109C299.32 170.844 298.727 171.547 297.992 172.219C297.273 172.875 296.406 173.414 295.391 173.836C294.391 174.258 293.234 174.469 291.922 174.469C290.266 174.469 288.789 174.141 287.492 173.484C286.195 172.812 285.18 171.914 284.445 170.789C283.711 169.648 283.344 168.359 283.344 166.922C283.344 165.578 283.594 164.391 284.094 163.359C284.609 162.312 285.359 161.438 286.344 160.734C287.344 160.031 288.562 159.5 290 159.141C291.438 158.766 293.078 158.578 294.922 158.578H299.352ZM324.336 167.133C324.336 166.57 324.195 166.062 323.914 165.609C323.633 165.141 323.094 164.719 322.297 164.344C321.516 163.969 320.359 163.625 318.828 163.312C317.484 163.016 316.25 162.664 315.125 162.258C314.016 161.836 313.062 161.328 312.266 160.734C311.469 160.141 310.852 159.438 310.414 158.625C309.977 157.812 309.758 156.875 309.758 155.812C309.758 154.781 309.984 153.805 310.438 152.883C310.891 151.961 311.539 151.148 312.383 150.445C313.227 149.742 314.25 149.188 315.453 148.781C316.672 148.375 318.031 148.172 319.531 148.172C321.656 148.172 323.477 148.531 324.992 149.25C326.523 149.953 327.695 150.914 328.508 152.133C329.32 153.336 329.727 154.695 329.727 156.211H324.078C324.078 155.539 323.906 154.914 323.562 154.336C323.234 153.742 322.734 153.266 322.062 152.906C321.391 152.531 320.547 152.344 319.531 152.344C318.562 152.344 317.758 152.5 317.117 152.812C316.492 153.109 316.023 153.5 315.711 153.984C315.414 154.469 315.266 155 315.266 155.578C315.266 156 315.344 156.383 315.5 156.727C315.672 157.055 315.953 157.359 316.344 157.641C316.734 157.906 317.266 158.156 317.938 158.391C318.625 158.625 319.484 158.852 320.516 159.07C322.453 159.477 324.117 160 325.508 160.641C326.914 161.266 327.992 162.078 328.742 163.078C329.492 164.062 329.867 165.312 329.867 166.828C329.867 167.953 329.625 168.984 329.141 169.922C328.672 170.844 327.984 171.648 327.078 172.336C326.172 173.008 325.086 173.531 323.82 173.906C322.57 174.281 321.164 174.469 319.602 174.469C317.305 174.469 315.359 174.062 313.766 173.25C312.172 172.422 310.961 171.367 310.133 170.086C309.32 168.789 308.914 167.445 308.914 166.055H314.375C314.438 167.102 314.727 167.938 315.242 168.562C315.773 169.172 316.43 169.617 317.211 169.898C318.008 170.164 318.828 170.297 319.672 170.297C320.688 170.297 321.539 170.164 322.227 169.898C322.914 169.617 323.438 169.242 323.797 168.773C324.156 168.289 324.336 167.742 324.336 167.133ZM342.172 171.234L349.062 148.641H355.109L344.938 177.867C344.703 178.492 344.398 179.172 344.023 179.906C343.648 180.641 343.156 181.336 342.547 181.992C341.953 182.664 341.211 183.203 340.32 183.609C339.43 184.031 338.352 184.242 337.086 184.242C336.586 184.242 336.102 184.195 335.633 184.102C335.18 184.023 334.75 183.938 334.344 183.844L334.32 179.531C334.477 179.547 334.664 179.562 334.883 179.578C335.117 179.594 335.305 179.602 335.445 179.602C336.383 179.602 337.164 179.484 337.789 179.25C338.414 179.031 338.922 178.672 339.312 178.172C339.719 177.672 340.062 177 340.344 176.156L342.172 171.234ZM338.281 148.641L344.305 167.625L345.312 173.578L341.398 174.586L332.188 148.641H338.281Z" fill="#0085FF"/>
<g clip-path="url(#clip0_14_2)">
<path d="M848.363 308C837.193 306.252 826.453 304.764 816.143 303.539L820.113 295.6C818.735 295.14 812.764 299.733 812.764 299.733L817.816 276.769C810.926 277.688 807.711 301.111 807.711 301.111L799.902 293.303L803.746 302.143C772.197 298.828 744.973 297.794 722.089 298.031L725.487 291.236C724.109 290.777 718.137 295.37 718.137 295.37L723.19 272.406C716.3 273.325 713.084 296.748 713.084 296.748L705.275 288.94L709.347 298.303C693.671 298.758 678.029 300.018 662.482 302.076C665.873 291.515 677.714 281.362 677.714 281.362C668.609 284.194 663.873 288.808 661.421 293.085C660.925 271.387 664.264 249.772 671.283 229.234C671.283 229.234 652.909 270.569 655.665 298.126L656.015 303.021C640.03 305.514 632.009 308 632.009 308H848.363Z" fill="#49D127"/>
<path d="M890.473 251.112C889.383 251.112 888.317 250.789 887.411 250.183C886.504 249.578 885.798 248.717 885.381 247.71C884.963 246.703 884.854 245.595 885.067 244.526C885.28 243.457 885.805 242.475 886.575 241.704C887.346 240.933 888.329 240.408 889.398 240.195C890.467 239.983 891.575 240.092 892.583 240.509C893.59 240.926 894.451 241.633 895.056 242.539C895.662 243.445 895.985 244.511 895.985 245.601C895.984 247.062 895.402 248.463 894.369 249.496C893.336 250.529 891.935 251.111 890.473 251.112V251.112ZM890.473 241.008C889.565 241.008 888.677 241.277 887.921 241.782C887.166 242.287 886.577 243.004 886.229 243.843C885.882 244.683 885.791 245.606 885.968 246.497C886.145 247.388 886.583 248.206 887.225 248.848C887.867 249.491 888.686 249.928 889.577 250.105C890.468 250.283 891.392 250.192 892.231 249.844C893.07 249.496 893.788 248.908 894.293 248.152C894.797 247.397 895.067 246.509 895.067 245.601C895.065 244.383 894.581 243.216 893.72 242.355C892.859 241.494 891.691 241.009 890.473 241.008V241.008Z" fill="#3F3D56"/>
<path d="M934.492 307.277H925.424V298.21H934.492V307.277ZM926.121 306.579H933.794V298.908H926.121V306.579Z" fill="#3F3D56"/>
<path d="M627.481 307.773L621.296 301.143L627.927 294.959L634.112 301.589L627.481 307.773ZM622.282 301.177L627.515 306.787L633.127 301.554L627.893 295.944L622.282 301.177Z" fill="#3F3D56"/>
<path d="M957 306.765H562.955V307.684H957V306.765Z" fill="#3F3D56"/>
<path d="M807.24 102.433V132.598C807.239 132.877 807.128 133.144 806.931 133.341C806.734 133.538 806.467 133.649 806.188 133.65H805.439V290.791C805.439 295.139 803.711 299.309 800.636 302.384C797.56 305.459 793.389 307.187 789.04 307.187H690.836C688.682 307.187 686.55 306.762 684.561 305.938C682.572 305.114 680.764 303.906 679.242 302.384C677.719 300.861 676.512 299.054 675.688 297.065C674.865 295.075 674.441 292.944 674.441 290.791V139.161H673.899C673.703 139.161 673.514 139.084 673.374 138.945C673.235 138.806 673.156 138.618 673.155 138.421V121.254C673.155 121.156 673.174 121.059 673.212 120.969C673.249 120.879 673.304 120.797 673.373 120.728C673.442 120.659 673.524 120.604 673.614 120.566C673.705 120.529 673.801 120.51 673.899 120.51H674.441V114.043H673.895C673.688 114.042 673.49 113.96 673.345 113.813C673.199 113.667 673.118 113.469 673.118 113.262V96.3289C673.119 96.1232 673.201 95.9261 673.346 95.7807C673.492 95.6352 673.689 95.5533 673.895 95.5527H674.441V86.7255H673.885C673.795 86.7256 673.705 86.7078 673.622 86.6733C673.538 86.6387 673.462 86.588 673.398 86.524C673.334 86.46 673.283 86.384 673.249 86.3003C673.214 86.2167 673.196 86.1271 673.196 86.0366V76.7959C673.196 76.6127 673.268 76.4367 673.397 76.3067C673.527 76.1767 673.702 76.1032 673.885 76.1024H674.441V57.3915C674.441 53.0443 676.169 48.8751 679.243 45.8012C682.318 42.7272 686.488 41.0002 690.835 41H789.04C793.389 41 797.559 42.7268 800.634 45.8007C803.71 48.8746 805.438 53.0438 805.439 57.3915V101.381H806.188C806.467 101.382 806.734 101.493 806.931 101.69C807.128 101.887 807.239 102.154 807.24 102.433V102.433Z" fill="black"/>
<path d="M572.125 292.231C577.834 302.817 589.95 307.361 589.95 307.361C589.95 307.361 592.811 294.743 587.102 284.157C581.393 273.571 569.276 269.027 569.276 269.027C569.276 269.027 566.416 281.645 572.125 292.231Z" fill="#49D127"/>
<path d="M576.049 288.748C586.356 294.949 590.325 307.264 590.325 307.264C590.325 307.264 577.584 309.526 567.277 303.326C556.97 297.126 553 284.811 553 284.811C553 284.811 565.742 282.548 576.049 288.748Z" fill="#49D127"/>
<path d="M744.648 50.6448H729.293C728.832 50.6443 728.39 50.4614 728.064 50.1361C727.738 49.8109 727.554 49.3698 727.554 48.9098V48.2463C727.554 47.7863 727.738 47.3452 728.064 47.02C728.39 46.6947 728.832 46.5118 729.293 46.5113H744.648C745.109 46.5118 745.551 46.6947 745.877 47.02C746.203 47.3452 746.387 47.7863 746.387 48.2463V48.9098C746.387 49.3698 746.203 49.8109 745.877 50.1361C745.551 50.4614 745.109 50.6443 744.648 50.6448V50.6448Z" fill="white"/>
<path d="M750.981 50.6448C752.249 50.6448 753.277 49.7195 753.277 48.578C753.277 47.4366 752.249 46.5113 750.981 46.5113C749.712 46.5113 748.684 47.4366 748.684 48.578C748.684 49.7195 749.712 50.6448 750.981 50.6448Z" fill="white"/>
<path d="M788.56 45.5928H773.193V47.4416C773.193 49.7699 772.268 52.0029 770.623 53.6493C768.977 55.2957 766.745 56.2206 764.417 56.2206H715.459C714.308 56.2211 713.167 55.9947 712.102 55.5542C711.038 55.1137 710.071 54.4678 709.256 53.6533C708.441 52.8389 707.794 51.8718 707.353 50.8074C706.912 49.743 706.684 48.602 706.684 47.4497V45.5928H692.275C689.449 45.5928 686.738 46.7159 684.74 48.7151C682.741 50.7142 681.619 53.4257 681.619 56.253V56.253V293.505C681.619 296.332 682.741 299.043 684.74 301.042C686.738 303.042 689.449 304.165 692.275 304.165H788.56C791.386 304.165 794.095 303.042 796.093 301.044C798.09 299.045 799.213 296.335 799.213 293.509V56.253C799.213 54.8536 798.938 53.4678 798.403 52.1747C797.869 50.8817 797.084 49.7066 796.096 48.7167C795.107 47.7268 793.933 46.9415 792.641 46.4055C791.348 45.8694 789.963 45.5933 788.565 45.5928H788.56Z" fill="white"/>
<path d="M761.007 275.69H719.824C716.879 275.69 714.055 274.504 711.972 272.394C709.89 270.284 708.72 267.422 708.72 264.437C708.72 261.453 709.89 258.591 711.972 256.481C714.055 254.371 716.879 253.185 719.824 253.185H761.007C763.952 253.185 766.776 254.371 768.859 256.481C770.941 258.591 772.111 261.453 772.111 264.437C772.111 267.422 770.941 270.284 768.859 272.394C766.776 274.504 763.952 275.69 761.007 275.69V275.69Z" fill="black"/>
<path d="M777.455 184.294H703.835C702.816 184.294 701.839 183.883 701.118 183.15C700.397 182.418 699.993 181.425 699.993 180.39C699.993 179.355 700.397 178.362 701.118 177.63C701.839 176.898 702.816 176.486 703.835 176.486H777.455C778.474 176.486 779.452 176.898 780.172 177.63C780.893 178.362 781.298 179.355 781.298 180.39C781.298 181.425 780.893 182.418 780.172 183.15C779.452 183.883 778.474 184.294 777.455 184.294V184.294Z" fill="#E6E6E6"/>
<path d="M777.455 195.317H703.835C702.816 195.317 701.839 194.929 701.118 194.24C700.397 193.551 699.993 192.617 699.993 191.642C699.993 190.668 700.397 189.733 701.118 189.044C701.839 188.355 702.816 187.968 703.835 187.968H777.455C778.474 187.968 779.452 188.355 780.172 189.044C780.893 189.733 781.298 190.668 781.298 191.642C781.298 192.617 780.893 193.551 780.172 194.24C779.452 194.929 778.474 195.317 777.455 195.317V195.317Z" fill="#E6E6E6"/>
<path d="M777.455 206.339H703.835C702.816 206.339 701.839 205.928 701.118 205.196C700.397 204.464 699.993 203.471 699.993 202.435C699.993 201.4 700.397 200.407 701.118 199.675C701.839 198.943 702.816 198.531 703.835 198.531H777.455C778.474 198.531 779.452 198.943 780.172 199.675C780.893 200.407 781.298 201.4 781.298 202.435C781.298 203.471 780.893 204.464 780.172 205.196C779.452 205.928 778.474 206.339 777.455 206.339V206.339Z" fill="#E6E6E6"/>
<path d="M777.455 218.28H703.835C702.816 218.28 701.839 217.845 701.118 217.07C700.397 216.294 699.993 215.243 699.993 214.147C699.993 213.051 700.397 211.999 701.118 211.224C701.839 210.449 702.816 210.013 703.835 210.013H777.455C778.474 210.013 779.452 210.449 780.172 211.224C780.893 211.999 781.298 213.051 781.298 214.147C781.298 215.243 780.893 216.294 780.172 217.07C779.452 217.845 778.474 218.28 777.455 218.28V218.28Z" fill="#E6E6E6"/>
<path d="M726.972 229.303H703.79C702.783 229.303 701.817 228.892 701.105 228.159C700.393 227.427 699.993 226.434 699.993 225.399C699.993 224.364 700.393 223.371 701.105 222.639C701.817 221.906 702.783 221.495 703.79 221.495H726.972C727.979 221.495 728.945 221.906 729.657 222.639C730.369 223.371 730.769 224.364 730.769 225.399C730.769 226.434 730.369 227.427 729.657 228.159C728.945 228.892 727.979 229.303 726.972 229.303H726.972Z" fill="#E6E6E6"/>
<path d="M788.661 153.063H692.63C691.781 153.062 690.967 152.719 690.366 152.108C689.766 151.498 689.428 150.67 689.427 149.807V77.324C689.428 76.4607 689.766 75.633 690.366 75.0226C690.967 74.4121 691.781 74.0688 692.63 74.0678H788.661C789.51 74.0688 790.324 74.4122 790.924 75.0226C791.524 75.6331 791.862 76.4607 791.863 77.324V149.807C791.862 150.67 791.524 151.498 790.924 152.108C790.324 152.719 789.51 153.062 788.661 153.063V153.063Z" fill="#E6E6E6"/>
</g>
<path d="M339.711 226.605C339.711 226.254 339.656 225.941 339.547 225.668C339.445 225.395 339.262 225.145 338.996 224.918C338.73 224.691 338.355 224.473 337.871 224.262C337.395 224.043 336.785 223.82 336.043 223.594C335.23 223.344 334.48 223.066 333.793 222.762C333.113 222.449 332.52 222.09 332.012 221.684C331.504 221.27 331.109 220.797 330.828 220.266C330.547 219.727 330.406 219.105 330.406 218.402C330.406 217.707 330.551 217.074 330.84 216.504C331.137 215.934 331.555 215.441 332.094 215.027C332.641 214.605 333.285 214.281 334.027 214.055C334.77 213.82 335.59 213.703 336.488 213.703C337.754 213.703 338.844 213.938 339.758 214.406C340.68 214.875 341.387 215.504 341.879 216.293C342.379 217.082 342.629 217.953 342.629 218.906H339.711C339.711 218.344 339.59 217.848 339.348 217.418C339.113 216.98 338.754 216.637 338.27 216.387C337.793 216.137 337.188 216.012 336.453 216.012C335.758 216.012 335.18 216.117 334.719 216.328C334.258 216.539 333.914 216.824 333.688 217.184C333.461 217.543 333.348 217.949 333.348 218.402C333.348 218.723 333.422 219.016 333.57 219.281C333.719 219.539 333.945 219.781 334.25 220.008C334.555 220.227 334.938 220.434 335.398 220.629C335.859 220.824 336.402 221.012 337.027 221.191C337.973 221.473 338.797 221.785 339.5 222.129C340.203 222.465 340.789 222.848 341.258 223.277C341.727 223.707 342.078 224.195 342.312 224.742C342.547 225.281 342.664 225.895 342.664 226.582C342.664 227.301 342.52 227.949 342.23 228.527C341.941 229.098 341.527 229.586 340.988 229.992C340.457 230.391 339.816 230.699 339.066 230.918C338.324 231.129 337.496 231.234 336.582 231.234C335.762 231.234 334.953 231.125 334.156 230.906C333.367 230.688 332.648 230.355 332 229.91C331.352 229.457 330.836 228.895 330.453 228.223C330.07 227.543 329.879 226.75 329.879 225.844H332.82C332.82 226.398 332.914 226.871 333.102 227.262C333.297 227.652 333.566 227.973 333.91 228.223C334.254 228.465 334.652 228.645 335.105 228.762C335.566 228.879 336.059 228.938 336.582 228.938C337.27 228.938 337.844 228.84 338.305 228.645C338.773 228.449 339.125 228.176 339.359 227.824C339.594 227.473 339.711 227.066 339.711 226.605ZM348.008 218.32V231H345.172V218.32H348.008ZM344.984 214.992C344.984 214.562 345.125 214.207 345.406 213.926C345.695 213.637 346.094 213.492 346.602 213.492C347.102 213.492 347.496 213.637 347.785 213.926C348.074 214.207 348.219 214.562 348.219 214.992C348.219 215.414 348.074 215.766 347.785 216.047C347.496 216.328 347.102 216.469 346.602 216.469C346.094 216.469 345.695 216.328 345.406 216.047C345.125 215.766 344.984 215.414 344.984 214.992ZM353.926 220.898V231H351.102V218.32H353.762L353.926 220.898ZM353.469 224.191L352.508 224.18C352.508 223.305 352.617 222.496 352.836 221.754C353.055 221.012 353.375 220.367 353.797 219.82C354.219 219.266 354.742 218.84 355.367 218.543C356 218.238 356.73 218.086 357.559 218.086C358.137 218.086 358.664 218.172 359.141 218.344C359.625 218.508 360.043 218.77 360.395 219.129C360.754 219.488 361.027 219.949 361.215 220.512C361.41 221.074 361.508 221.754 361.508 222.551V231H358.684V222.797C358.684 222.18 358.59 221.695 358.402 221.344C358.223 220.992 357.961 220.742 357.617 220.594C357.281 220.438 356.879 220.359 356.41 220.359C355.879 220.359 355.426 220.461 355.051 220.664C354.684 220.867 354.383 221.145 354.148 221.496C353.914 221.848 353.742 222.254 353.633 222.715C353.523 223.176 353.469 223.668 353.469 224.191ZM361.332 223.441L360.008 223.734C360.008 222.969 360.113 222.246 360.324 221.566C360.543 220.879 360.859 220.277 361.273 219.762C361.695 219.238 362.215 218.828 362.832 218.531C363.449 218.234 364.156 218.086 364.953 218.086C365.602 218.086 366.18 218.176 366.688 218.355C367.203 218.527 367.641 218.801 368 219.176C368.359 219.551 368.633 220.039 368.82 220.641C369.008 221.234 369.102 221.953 369.102 222.797V231H366.266V222.785C366.266 222.145 366.172 221.648 365.984 221.297C365.805 220.945 365.547 220.703 365.211 220.57C364.875 220.43 364.473 220.359 364.004 220.359C363.566 220.359 363.18 220.441 362.844 220.605C362.516 220.762 362.238 220.984 362.012 221.273C361.785 221.555 361.613 221.879 361.496 222.246C361.387 222.613 361.332 223.012 361.332 223.441ZM374.844 220.758V235.875H372.02V218.32H374.621L374.844 220.758ZM383.105 224.543V224.789C383.105 225.711 382.996 226.566 382.777 227.355C382.566 228.137 382.25 228.82 381.828 229.406C381.414 229.984 380.902 230.434 380.293 230.754C379.684 231.074 378.98 231.234 378.184 231.234C377.395 231.234 376.703 231.09 376.109 230.801C375.523 230.504 375.027 230.086 374.621 229.547C374.215 229.008 373.887 228.375 373.637 227.648C373.395 226.914 373.223 226.109 373.121 225.234V224.285C373.223 223.355 373.395 222.512 373.637 221.754C373.887 220.996 374.215 220.344 374.621 219.797C375.027 219.25 375.523 218.828 376.109 218.531C376.695 218.234 377.379 218.086 378.16 218.086C378.957 218.086 379.664 218.242 380.281 218.555C380.898 218.859 381.418 219.297 381.84 219.867C382.262 220.43 382.578 221.109 382.789 221.906C383 222.695 383.105 223.574 383.105 224.543ZM380.281 224.789V224.543C380.281 223.957 380.227 223.414 380.117 222.914C380.008 222.406 379.836 221.961 379.602 221.578C379.367 221.195 379.066 220.898 378.699 220.688C378.34 220.469 377.906 220.359 377.398 220.359C376.898 220.359 376.469 220.445 376.109 220.617C375.75 220.781 375.449 221.012 375.207 221.309C374.965 221.605 374.777 221.953 374.645 222.352C374.512 222.742 374.418 223.168 374.363 223.629V225.902C374.457 226.465 374.617 226.98 374.844 227.449C375.07 227.918 375.391 228.293 375.805 228.574C376.227 228.848 376.766 228.984 377.422 228.984C377.93 228.984 378.363 228.875 378.723 228.656C379.082 228.438 379.375 228.137 379.602 227.754C379.836 227.363 380.008 226.914 380.117 226.406C380.227 225.898 380.281 225.359 380.281 224.789ZM388.531 213V231H385.695V213H388.531ZM397.215 231.234C396.277 231.234 395.43 231.082 394.672 230.777C393.922 230.465 393.281 230.031 392.75 229.477C392.227 228.922 391.824 228.27 391.543 227.52C391.262 226.77 391.121 225.961 391.121 225.094V224.625C391.121 223.633 391.266 222.734 391.555 221.93C391.844 221.125 392.246 220.438 392.762 219.867C393.277 219.289 393.887 218.848 394.59 218.543C395.293 218.238 396.055 218.086 396.875 218.086C397.781 218.086 398.574 218.238 399.254 218.543C399.934 218.848 400.496 219.277 400.941 219.832C401.395 220.379 401.73 221.031 401.949 221.789C402.176 222.547 402.289 223.383 402.289 224.297V225.504H392.492V223.477H399.5V223.254C399.484 222.746 399.383 222.27 399.195 221.824C399.016 221.379 398.738 221.02 398.363 220.746C397.988 220.473 397.488 220.336 396.863 220.336C396.395 220.336 395.977 220.438 395.609 220.641C395.25 220.836 394.949 221.121 394.707 221.496C394.465 221.871 394.277 222.324 394.145 222.855C394.02 223.379 393.957 223.969 393.957 224.625V225.094C393.957 225.648 394.031 226.164 394.18 226.641C394.336 227.109 394.562 227.52 394.859 227.871C395.156 228.223 395.516 228.5 395.938 228.703C396.359 228.898 396.84 228.996 397.379 228.996C398.059 228.996 398.664 228.859 399.195 228.586C399.727 228.312 400.188 227.926 400.578 227.426L402.066 228.867C401.793 229.266 401.438 229.648 401 230.016C400.562 230.375 400.027 230.668 399.395 230.895C398.77 231.121 398.043 231.234 397.215 231.234ZM421.918 228.668V231H412.859V228.668H421.918ZM413.691 213.938V231H410.75V213.938H413.691ZM420.734 221.062V223.359H412.859V221.062H420.734ZM421.859 213.938V216.281H412.859V213.938H421.859ZM431.188 228.457V222.41C431.188 221.957 431.105 221.566 430.941 221.238C430.777 220.91 430.527 220.656 430.191 220.477C429.863 220.297 429.449 220.207 428.949 220.207C428.488 220.207 428.09 220.285 427.754 220.441C427.418 220.598 427.156 220.809 426.969 221.074C426.781 221.34 426.688 221.641 426.688 221.977H423.875C423.875 221.477 423.996 220.992 424.238 220.523C424.48 220.055 424.832 219.637 425.293 219.27C425.754 218.902 426.305 218.613 426.945 218.402C427.586 218.191 428.305 218.086 429.102 218.086C430.055 218.086 430.898 218.246 431.633 218.566C432.375 218.887 432.957 219.371 433.379 220.02C433.809 220.66 434.023 221.465 434.023 222.434V228.07C434.023 228.648 434.062 229.168 434.141 229.629C434.227 230.082 434.348 230.477 434.504 230.812V231H431.609C431.477 230.695 431.371 230.309 431.293 229.84C431.223 229.363 431.188 228.902 431.188 228.457ZM431.598 223.289L431.621 225.035H429.594C429.07 225.035 428.609 225.086 428.211 225.188C427.812 225.281 427.48 225.422 427.215 225.609C426.949 225.797 426.75 226.023 426.617 226.289C426.484 226.555 426.418 226.855 426.418 227.191C426.418 227.527 426.496 227.836 426.652 228.117C426.809 228.391 427.035 228.605 427.332 228.762C427.637 228.918 428.004 228.996 428.434 228.996C429.012 228.996 429.516 228.879 429.945 228.645C430.383 228.402 430.727 228.109 430.977 227.766C431.227 227.414 431.359 227.082 431.375 226.77L432.289 228.023C432.195 228.344 432.035 228.688 431.809 229.055C431.582 229.422 431.285 229.773 430.918 230.109C430.559 230.438 430.125 230.707 429.617 230.918C429.117 231.129 428.539 231.234 427.883 231.234C427.055 231.234 426.316 231.07 425.668 230.742C425.02 230.406 424.512 229.957 424.145 229.395C423.777 228.824 423.594 228.18 423.594 227.461C423.594 226.789 423.719 226.195 423.969 225.68C424.227 225.156 424.602 224.719 425.094 224.367C425.594 224.016 426.203 223.75 426.922 223.57C427.641 223.383 428.461 223.289 429.383 223.289H431.598ZM444.09 227.566C444.09 227.285 444.02 227.031 443.879 226.805C443.738 226.57 443.469 226.359 443.07 226.172C442.68 225.984 442.102 225.812 441.336 225.656C440.664 225.508 440.047 225.332 439.484 225.129C438.93 224.918 438.453 224.664 438.055 224.367C437.656 224.07 437.348 223.719 437.129 223.312C436.91 222.906 436.801 222.438 436.801 221.906C436.801 221.391 436.914 220.902 437.141 220.441C437.367 219.98 437.691 219.574 438.113 219.223C438.535 218.871 439.047 218.594 439.648 218.391C440.258 218.188 440.938 218.086 441.688 218.086C442.75 218.086 443.66 218.266 444.418 218.625C445.184 218.977 445.77 219.457 446.176 220.066C446.582 220.668 446.785 221.348 446.785 222.105H443.961C443.961 221.77 443.875 221.457 443.703 221.168C443.539 220.871 443.289 220.633 442.953 220.453C442.617 220.266 442.195 220.172 441.688 220.172C441.203 220.172 440.801 220.25 440.48 220.406C440.168 220.555 439.934 220.75 439.777 220.992C439.629 221.234 439.555 221.5 439.555 221.789C439.555 222 439.594 222.191 439.672 222.363C439.758 222.527 439.898 222.68 440.094 222.82C440.289 222.953 440.555 223.078 440.891 223.195C441.234 223.312 441.664 223.426 442.18 223.535C443.148 223.738 443.98 224 444.676 224.32C445.379 224.633 445.918 225.039 446.293 225.539C446.668 226.031 446.855 226.656 446.855 227.414C446.855 227.977 446.734 228.492 446.492 228.961C446.258 229.422 445.914 229.824 445.461 230.168C445.008 230.504 444.465 230.766 443.832 230.953C443.207 231.141 442.504 231.234 441.723 231.234C440.574 231.234 439.602 231.031 438.805 230.625C438.008 230.211 437.402 229.684 436.988 229.043C436.582 228.395 436.379 227.723 436.379 227.027H439.109C439.141 227.551 439.285 227.969 439.543 228.281C439.809 228.586 440.137 228.809 440.527 228.949C440.926 229.082 441.336 229.148 441.758 229.148C442.266 229.148 442.691 229.082 443.035 228.949C443.379 228.809 443.641 228.621 443.82 228.387C444 228.145 444.09 227.871 444.09 227.566ZM453.008 229.617L456.453 218.32H459.477L454.391 232.934C454.273 233.246 454.121 233.586 453.934 233.953C453.746 234.32 453.5 234.668 453.195 234.996C452.898 235.332 452.527 235.602 452.082 235.805C451.637 236.016 451.098 236.121 450.465 236.121C450.215 236.121 449.973 236.098 449.738 236.051C449.512 236.012 449.297 235.969 449.094 235.922L449.082 233.766C449.16 233.773 449.254 233.781 449.363 233.789C449.48 233.797 449.574 233.801 449.645 233.801C450.113 233.801 450.504 233.742 450.816 233.625C451.129 233.516 451.383 233.336 451.578 233.086C451.781 232.836 451.953 232.5 452.094 232.078L453.008 229.617ZM451.062 218.32L454.074 227.812L454.578 230.789L452.621 231.293L448.016 218.32H451.062ZM473.996 216.211L468.898 231H465.816L472.238 213.938H474.207L473.996 216.211ZM478.262 231L473.152 216.211L472.93 213.938H474.91L481.355 231H478.262ZM478.016 224.672V227.004H468.734V224.672H478.016ZM485.609 220.758V235.875H482.785V218.32H485.387L485.609 220.758ZM493.871 224.543V224.789C493.871 225.711 493.762 226.566 493.543 227.355C493.332 228.137 493.016 228.82 492.594 229.406C492.18 229.984 491.668 230.434 491.059 230.754C490.449 231.074 489.746 231.234 488.949 231.234C488.16 231.234 487.469 231.09 486.875 230.801C486.289 230.504 485.793 230.086 485.387 229.547C484.98 229.008 484.652 228.375 484.402 227.648C484.16 226.914 483.988 226.109 483.887 225.234V224.285C483.988 223.355 484.16 222.512 484.402 221.754C484.652 220.996 484.98 220.344 485.387 219.797C485.793 219.25 486.289 218.828 486.875 218.531C487.461 218.234 488.145 218.086 488.926 218.086C489.723 218.086 490.43 218.242 491.047 218.555C491.664 218.859 492.184 219.297 492.605 219.867C493.027 220.43 493.344 221.109 493.555 221.906C493.766 222.695 493.871 223.574 493.871 224.543ZM491.047 224.789V224.543C491.047 223.957 490.992 223.414 490.883 222.914C490.773 222.406 490.602 221.961 490.367 221.578C490.133 221.195 489.832 220.898 489.465 220.688C489.105 220.469 488.672 220.359 488.164 220.359C487.664 220.359 487.234 220.445 486.875 220.617C486.516 220.781 486.215 221.012 485.973 221.309C485.73 221.605 485.543 221.953 485.41 222.352C485.277 222.742 485.184 223.168 485.129 223.629V225.902C485.223 226.465 485.383 226.98 485.609 227.449C485.836 227.918 486.156 228.293 486.57 228.574C486.992 228.848 487.531 228.984 488.188 228.984C488.695 228.984 489.129 228.875 489.488 228.656C489.848 228.438 490.141 228.137 490.367 227.754C490.602 227.363 490.773 226.914 490.883 226.406C490.992 225.898 491.047 225.359 491.047 224.789ZM499.109 220.758V235.875H496.285V218.32H498.887L499.109 220.758ZM507.371 224.543V224.789C507.371 225.711 507.262 226.566 507.043 227.355C506.832 228.137 506.516 228.82 506.094 229.406C505.68 229.984 505.168 230.434 504.559 230.754C503.949 231.074 503.246 231.234 502.449 231.234C501.66 231.234 500.969 231.09 500.375 230.801C499.789 230.504 499.293 230.086 498.887 229.547C498.48 229.008 498.152 228.375 497.902 227.648C497.66 226.914 497.488 226.109 497.387 225.234V224.285C497.488 223.355 497.66 222.512 497.902 221.754C498.152 220.996 498.48 220.344 498.887 219.797C499.293 219.25 499.789 218.828 500.375 218.531C500.961 218.234 501.645 218.086 502.426 218.086C503.223 218.086 503.93 218.242 504.547 218.555C505.164 218.859 505.684 219.297 506.105 219.867C506.527 220.43 506.844 221.109 507.055 221.906C507.266 222.695 507.371 223.574 507.371 224.543ZM504.547 224.789V224.543C504.547 223.957 504.492 223.414 504.383 222.914C504.273 222.406 504.102 221.961 503.867 221.578C503.633 221.195 503.332 220.898 502.965 220.688C502.605 220.469 502.172 220.359 501.664 220.359C501.164 220.359 500.734 220.445 500.375 220.617C500.016 220.781 499.715 221.012 499.473 221.309C499.23 221.605 499.043 221.953 498.91 222.352C498.777 222.742 498.684 223.168 498.629 223.629V225.902C498.723 226.465 498.883 226.98 499.109 227.449C499.336 227.918 499.656 228.293 500.07 228.574C500.492 228.848 501.031 228.984 501.688 228.984C502.195 228.984 502.629 228.875 502.988 228.656C503.348 228.438 503.641 228.137 503.867 227.754C504.102 227.363 504.273 226.914 504.383 226.406C504.492 225.898 504.547 225.359 504.547 224.789ZM516.887 227.566C516.887 227.285 516.816 227.031 516.676 226.805C516.535 226.57 516.266 226.359 515.867 226.172C515.477 225.984 514.898 225.812 514.133 225.656C513.461 225.508 512.844 225.332 512.281 225.129C511.727 224.918 511.25 224.664 510.852 224.367C510.453 224.07 510.145 223.719 509.926 223.312C509.707 222.906 509.598 222.438 509.598 221.906C509.598 221.391 509.711 220.902 509.938 220.441C510.164 219.98 510.488 219.574 510.91 219.223C511.332 218.871 511.844 218.594 512.445 218.391C513.055 218.188 513.734 218.086 514.484 218.086C515.547 218.086 516.457 218.266 517.215 218.625C517.98 218.977 518.566 219.457 518.973 220.066C519.379 220.668 519.582 221.348 519.582 222.105H516.758C516.758 221.77 516.672 221.457 516.5 221.168C516.336 220.871 516.086 220.633 515.75 220.453C515.414 220.266 514.992 220.172 514.484 220.172C514 220.172 513.598 220.25 513.277 220.406C512.965 220.555 512.73 220.75 512.574 220.992C512.426 221.234 512.352 221.5 512.352 221.789C512.352 222 512.391 222.191 512.469 222.363C512.555 222.527 512.695 222.68 512.891 222.82C513.086 222.953 513.352 223.078 513.688 223.195C514.031 223.312 514.461 223.426 514.977 223.535C515.945 223.738 516.777 224 517.473 224.32C518.176 224.633 518.715 225.039 519.09 225.539C519.465 226.031 519.652 226.656 519.652 227.414C519.652 227.977 519.531 228.492 519.289 228.961C519.055 229.422 518.711 229.824 518.258 230.168C517.805 230.504 517.262 230.766 516.629 230.953C516.004 231.141 515.301 231.234 514.52 231.234C513.371 231.234 512.398 231.031 511.602 230.625C510.805 230.211 510.199 229.684 509.785 229.043C509.379 228.395 509.176 227.723 509.176 227.027H511.906C511.938 227.551 512.082 227.969 512.34 228.281C512.605 228.586 512.934 228.809 513.324 228.949C513.723 229.082 514.133 229.148 514.555 229.148C515.062 229.148 515.488 229.082 515.832 228.949C516.176 228.809 516.438 228.621 516.617 228.387C516.797 228.145 516.887 227.871 516.887 227.566Z" fill="black"/>
<path d="M297.57 229.594C297.57 229.156 297.719 228.789 298.016 228.492C298.312 228.188 298.715 228.035 299.223 228.035C299.738 228.035 300.141 228.188 300.43 228.492C300.727 228.789 300.875 229.156 300.875 229.594C300.875 230.031 300.727 230.398 300.43 230.695C300.141 230.992 299.738 231.141 299.223 231.141C298.715 231.141 298.312 230.992 298.016 230.695C297.719 230.398 297.57 230.031 297.57 229.594ZM304.25 229.594C304.25 229.156 304.398 228.789 304.695 228.492C304.992 228.188 305.395 228.035 305.902 228.035C306.418 228.035 306.82 228.188 307.109 228.492C307.406 228.789 307.555 229.156 307.555 229.594C307.555 230.031 307.406 230.398 307.109 230.695C306.82 230.992 306.418 231.141 305.902 231.141C305.395 231.141 304.992 230.992 304.695 230.695C304.398 230.398 304.25 230.031 304.25 229.594ZM310.93 229.594C310.93 229.156 311.078 228.789 311.375 228.492C311.672 228.188 312.074 228.035 312.582 228.035C313.098 228.035 313.5 228.188 313.789 228.492C314.086 228.789 314.234 229.156 314.234 229.594C314.234 230.031 314.086 230.398 313.789 230.695C313.5 230.992 313.098 231.141 312.582 231.141C312.074 231.141 311.672 230.992 311.375 230.695C311.078 230.398 310.93 230.031 310.93 229.594Z" fill="black"/>
<defs>
<clipPath id="clip0_14_2">
<rect width="404" height="267" fill="white" transform="translate(553 41)"/>
</clipPath>
</defs>
</svg>
