<svg width="512" height="512" viewBox="0 0 512 512" fill="none" xmlns="http://www.w3.org/2000/svg">
<rect width="512" height="512" fill="white"/>
<path d="M31 31H481V481H31V31Z" fill="#C4C4C4"/>
<path d="M31 31H179.5V481H31V31Z" fill="#0085FF"/>
<path d="M179.5 31H332.5V481H179.5V31Z" fill="#49D127"/>
<path d="M332.5 31H481V481H332.5V31Z" fill="#F35555"/>
<path d="M130.844 280.645C130.844 277.955 130.422 275.582 129.578 273.525C128.787 271.416 127.363 269.518 125.307 267.83C123.303 266.143 120.508 264.534 116.922 263.005C113.389 261.476 108.906 259.92 103.475 258.338C97.7793 256.65 92.6377 254.778 88.0498 252.722C83.4619 250.612 79.5332 248.213 76.2637 245.523C72.9941 242.834 70.4893 239.749 68.749 236.269C67.0088 232.788 66.1387 228.807 66.1387 224.324C66.1387 219.842 67.0615 215.702 68.9072 211.905C70.7529 208.108 73.3896 204.812 76.8174 202.018C80.2978 199.17 84.4375 196.955 89.2363 195.373C94.0351 193.791 99.3877 193 105.294 193C113.942 193 121.272 194.661 127.284 197.983C133.349 201.253 137.963 205.551 141.127 210.877C144.291 216.15 145.873 221.793 145.873 227.805H130.686C130.686 223.48 129.763 219.657 127.917 216.335C126.071 212.96 123.276 210.323 119.532 208.425C115.788 206.474 111.042 205.498 105.294 205.498C99.8623 205.498 95.3799 206.315 91.8467 207.95C88.3135 209.585 85.6768 211.8 83.9365 214.595C82.249 217.39 81.4053 220.58 81.4053 224.166C81.4053 226.592 81.9062 228.807 82.9082 230.811C83.9629 232.762 85.5713 234.581 87.7334 236.269C89.9482 237.956 92.7432 239.512 96.1182 240.936C99.5459 242.359 103.633 243.73 108.379 245.049C114.918 246.895 120.561 248.951 125.307 251.219C130.053 253.486 133.955 256.044 137.014 258.892C140.125 261.687 142.419 264.877 143.895 268.463C145.425 271.996 146.189 276.004 146.189 280.486C146.189 285.18 145.24 289.425 143.342 293.222C141.443 297.019 138.728 300.262 135.194 302.951C131.661 305.641 127.416 307.724 122.459 309.2C117.555 310.624 112.07 311.336 106.006 311.336C100.68 311.336 95.4326 310.598 90.2646 309.121C85.1494 307.645 80.4824 305.43 76.2637 302.477C72.0977 299.523 68.749 295.885 66.2178 291.561C63.7393 287.184 62.5 282.121 62.5 276.373H77.6875C77.6875 280.328 78.4521 283.729 79.9814 286.577C81.5107 289.372 83.5937 291.692 86.2305 293.538C88.9199 295.384 91.9521 296.755 95.3271 297.651C98.7549 298.495 102.314 298.917 106.006 298.917C111.332 298.917 115.841 298.179 119.532 296.702C123.224 295.226 126.019 293.116 127.917 290.374C129.868 287.632 130.844 284.389 130.844 280.645Z" fill="white"/>
<path d="M293.169 295.753V308.172H232.181V295.753H293.169ZM235.266 193V308.172H220V193H235.266ZM285.1 242.518V254.937H232.181V242.518H285.1ZM292.378 193V205.498H232.181V193H292.378Z" fill="white"/>
<path d="M408.71 203.204L370.583 308.172H355L398.901 193H408.947L408.71 203.204ZM440.667 308.172L402.461 203.204L402.224 193H412.27L456.329 308.172H440.667ZM438.689 265.536V278.034H373.984V265.536H438.689Z" fill="white"/>
</svg>
