<svg width="100" height="100" viewBox="0 0 100 100" fill="none" xmlns="http://www.w3.org/2000/svg">
<path d="M0 0H100V100H0V0Z" fill="#C4C4C4"/>
<path d="M0 0H33V100H0V0Z" fill="#0085FF"/>
<path d="M33 0H67V100H33V0Z" fill="#49D127"/>
<path d="M67 0H100V100H67V0Z" fill="#F35555"/>
<path d="M22.1875 55.4766C22.1875 54.8789 22.0938 54.3516 21.9062 53.8945C21.7305 53.4258 21.4141 53.0039 20.957 52.6289C20.5117 52.2539 19.8906 51.8965 19.0938 51.5566C18.3086 51.2168 17.3125 50.8711 16.1055 50.5195C14.8398 50.1445 13.6973 49.7285 12.6777 49.2715C11.6582 48.8027 10.7852 48.2695 10.0586 47.6719C9.33203 47.0742 8.77539 46.3887 8.38867 45.6152C8.00195 44.8418 7.80859 43.957 7.80859 42.9609C7.80859 41.9648 8.01367 41.0449 8.42383 40.2012C8.83398 39.3574 9.41992 38.625 10.1816 38.0039C10.9551 37.3711 11.875 36.8789 12.9414 36.5273C14.0078 36.1758 15.1973 36 16.5098 36C18.4316 36 20.0605 36.3691 21.3965 37.1074C22.7441 37.834 23.7695 38.7891 24.4727 39.9727C25.1758 41.1445 25.5273 42.3984 25.5273 43.7344H22.1523C22.1523 42.7734 21.9473 41.9238 21.5371 41.1855C21.127 40.4355 20.5059 39.8496 19.6738 39.4277C18.8418 38.9941 17.7871 38.7773 16.5098 38.7773C15.3027 38.7773 14.3066 38.959 13.5215 39.3223C12.7363 39.6855 12.1504 40.1777 11.7637 40.7988C11.3887 41.4199 11.2012 42.1289 11.2012 42.9258C11.2012 43.4648 11.3125 43.957 11.5352 44.4023C11.7695 44.8359 12.127 45.2402 12.6074 45.6152C13.0996 45.9902 13.7207 46.3359 14.4707 46.6523C15.2324 46.9688 16.1406 47.2734 17.1953 47.5664C18.6484 47.9766 19.9023 48.4336 20.957 48.9375C22.0117 49.4414 22.8789 50.0098 23.5586 50.6426C24.25 51.2637 24.7598 51.9727 25.0879 52.7695C25.4277 53.5547 25.5977 54.4453 25.5977 55.4414C25.5977 56.4844 25.3867 57.4277 24.9648 58.2715C24.543 59.1152 23.9395 59.8359 23.1543 60.4336C22.3691 61.0312 21.4258 61.4941 20.3242 61.8223C19.2344 62.1387 18.0156 62.2969 16.668 62.2969C15.4844 62.2969 14.3184 62.1328 13.1699 61.8047C12.0332 61.4766 10.9961 60.9844 10.0586 60.3281C9.13281 59.6719 8.38867 58.8633 7.82617 57.9023C7.27539 56.9297 7 55.8047 7 54.5273H10.375C10.375 55.4062 10.5449 56.1621 10.8848 56.7949C11.2246 57.416 11.6875 57.9316 12.2734 58.3418C12.8711 58.752 13.5449 59.0566 14.2949 59.2559C15.0566 59.4434 15.8477 59.5371 16.668 59.5371C17.8516 59.5371 18.8535 59.373 19.6738 59.0449C20.4941 58.7168 21.1152 58.248 21.5371 57.6387C21.9707 57.0293 22.1875 56.3086 22.1875 55.4766Z" fill="white"/>
<path d="M58.2598 58.834V61.5938H44.707V58.834H58.2598ZM45.3926 36V61.5938H42V36H45.3926ZM56.4668 47.0039V49.7637H44.707V47.0039H56.4668ZM58.084 36V38.7773H44.707V36H58.084Z" fill="white"/>
<path d="M83.9355 38.2676L75.4629 61.5938H72L81.7559 36H83.9883L83.9355 38.2676ZM91.0371 61.5938L82.5469 38.2676L82.4941 36H84.7266L94.5176 61.5938H91.0371ZM90.5977 52.1191V54.8965H76.2188V52.1191H90.5977Z" fill="white"/>
</svg>
