<svg width="100" height="100" viewBox="0 0 100 100" fill="none" xmlns="http://www.w3.org/2000/svg">
<path d="M0 0H100V100H0V0Z" fill="#C4C4C4"/>
<path d="M0 0H33.3333V100H0V0Z" fill="#49D127"/>
<path d="M33 0H66.3333V100H33V0Z" fill="#0085FF"/>
<path d="M66 0H100V100H66V0Z" fill="#F35555"/>
<path d="M22.6113 55.5312C22.6113 54.9336 22.5176 54.4062 22.3301 53.9492C22.1543 53.4805 21.8379 53.0586 21.3809 52.6836C20.9355 52.3086 20.3145 51.9512 19.5176 51.6113C18.7324 51.2715 17.7363 50.9258 16.5293 50.5742C15.2637 50.1992 14.1211 49.7832 13.1016 49.3262C12.082 48.8574 11.209 48.3242 10.4824 47.7266C9.75586 47.1289 9.19922 46.4434 8.8125 45.6699C8.42578 44.8965 8.23242 44.0117 8.23242 43.0156C8.23242 42.0195 8.4375 41.0996 8.84766 40.2559C9.25781 39.4121 9.84375 38.6797 10.6055 38.0586C11.3789 37.4258 12.2988 36.9336 13.3652 36.582C14.4316 36.2305 15.6211 36.0547 16.9336 36.0547C18.8555 36.0547 20.4844 36.4238 21.8203 37.1621C23.168 37.8887 24.1934 38.8438 24.8965 40.0273C25.5996 41.1992 25.9512 42.4531 25.9512 43.7891H22.5762C22.5762 42.8281 22.3711 41.9785 21.9609 41.2402C21.5508 40.4902 20.9297 39.9043 20.0977 39.4824C19.2656 39.0488 18.2109 38.832 16.9336 38.832C15.7266 38.832 14.7305 39.0137 13.9453 39.377C13.1602 39.7402 12.5742 40.2324 12.1875 40.8535C11.8125 41.4746 11.625 42.1836 11.625 42.9805C11.625 43.5195 11.7363 44.0117 11.959 44.457C12.1934 44.8906 12.5508 45.2949 13.0312 45.6699C13.5234 46.0449 14.1445 46.3906 14.8945 46.707C15.6562 47.0234 16.5645 47.3281 17.6191 47.6211C19.0723 48.0312 20.3262 48.4883 21.3809 48.9922C22.4355 49.4961 23.3027 50.0645 23.9824 50.6973C24.6738 51.3184 25.1836 52.0273 25.5117 52.8242C25.8516 53.6094 26.0215 54.5 26.0215 55.4961C26.0215 56.5391 25.8105 57.4824 25.3887 58.3262C24.9668 59.1699 24.3633 59.8906 23.5781 60.4883C22.793 61.0859 21.8496 61.5488 20.748 61.877C19.6582 62.1934 18.4395 62.3516 17.0918 62.3516C15.9082 62.3516 14.7422 62.1875 13.5938 61.8594C12.457 61.5312 11.4199 61.0391 10.4824 60.3828C9.55664 59.7266 8.8125 58.918 8.25 57.957C7.69922 56.9844 7.42383 55.8594 7.42383 54.582H10.7988C10.7988 55.4609 10.9688 56.2168 11.3086 56.8496C11.6484 57.4707 12.1113 57.9863 12.6973 58.3965C13.2949 58.8066 13.9688 59.1113 14.7188 59.3105C15.4805 59.498 16.2715 59.5918 17.0918 59.5918C18.2754 59.5918 19.2773 59.4277 20.0977 59.0996C20.918 58.7715 21.5391 58.3027 21.9609 57.6934C22.3945 57.084 22.6113 56.3633 22.6113 55.5312Z" fill="white"/>
<path d="M59.2305 59.2402V62H45.6777V59.2402H59.2305ZM46.3633 36.4062V62H42.9707V36.4062H46.3633ZM57.4375 47.4102V50.1699H45.6777V47.4102H57.4375ZM59.0547 36.4062V39.1836H45.6777V36.4062H59.0547Z" fill="white"/>
<path d="M83.4453 38.6738L74.9727 62H71.5098L81.2656 36.4062H83.498L83.4453 38.6738ZM90.5469 62L82.0566 38.6738L82.0039 36.4062H84.2363L94.0273 62H90.5469ZM90.1074 52.5254V55.3027H75.7285V52.5254H90.1074Z" fill="white"/>
</svg>
